<svg viewBox="0 0 52 52" xmlns="http://www.w3.org/2000/svg">
<path d="M20.928 8.78459C23.0775 8.78459 24.8199 7.03583 24.8199 4.87862C24.8199 2.72142 23.0775 0.972656 20.928 0.972656C18.7786 0.972656 17.0361 2.72142 17.0361 4.87862C17.0361 7.03583 18.7786 8.78459 20.928 8.78459Z"/>
<path d="M12.3515 9.79861C14.0233 9.79861 15.3785 8.43846 15.3785 6.76063C15.3785 5.0828 14.0233 3.72266 12.3515 3.72266C10.6797 3.72266 9.32446 5.0828 9.32446 6.76063C9.32446 8.43846 10.6797 9.79861 12.3515 9.79861Z"/>
<path d="M6.08101 13.4139C7.19553 13.4139 8.09902 12.5071 8.09902 11.3886C8.09902 10.27 7.19553 9.36328 6.08101 9.36328C4.96649 9.36328 4.06299 10.27 4.06299 11.3886C4.06299 12.5071 4.96649 13.4139 6.08101 13.4139Z"/>
<path d="M2.47757 18.0437C3.27366 18.0437 3.91902 17.396 3.91902 16.597C3.91902 15.7981 3.27366 15.1504 2.47757 15.1504C1.68149 15.1504 1.03613 15.7981 1.03613 16.597C1.03613 17.396 1.68149 18.0437 2.47757 18.0437Z"/>
<path d="M1.32439 21.4432C1.84184 21.4432 2.26133 21.0222 2.26133 20.5028C2.26133 19.9835 1.84184 19.5625 1.32439 19.5625C0.806932 19.5625 0.387451 19.9835 0.387451 20.5028C0.387451 21.0222 0.806932 21.4432 1.32439 21.4432Z"/>
<path d="M31.1186 42.8541C28.9692 42.8541 27.2267 44.6028 27.2267 46.76C27.2267 48.9173 28.9692 50.666 31.1186 50.666C33.268 50.666 35.0105 48.9173 35.0105 46.76C35.0105 44.6028 33.268 42.8541 31.1186 42.8541Z"/>
<path d="M39.6951 41.842C38.0234 41.842 36.6681 43.2022 36.6681 44.88C36.6681 46.5578 38.0234 47.918 39.6951 47.918C41.3669 47.918 42.7222 46.5578 42.7222 44.88C42.7222 43.2022 41.3669 41.842 39.6951 41.842Z"/>
<path d="M45.9656 38.2248C44.8511 38.2248 43.9476 39.1315 43.9476 40.2501C43.9476 41.3686 44.8511 42.2754 45.9656 42.2754C47.0801 42.2754 47.9836 41.3686 47.9836 40.2501C47.9836 39.1315 47.0801 38.2248 45.9656 38.2248Z"/>
<path d="M49.5691 33.595C48.773 33.595 48.1276 34.2427 48.1276 35.0416C48.1276 35.8406 48.773 36.4883 49.5691 36.4883C50.3651 36.4883 51.0105 35.8406 51.0105 35.0416C51.0105 34.2427 50.3651 33.595 49.5691 33.595Z"/>
<path d="M50.7222 30.1955C50.2048 30.1955 49.7853 30.6165 49.7853 31.1358C49.7853 31.6552 50.2048 32.0762 50.7222 32.0762C51.2397 32.0762 51.6592 31.6552 51.6592 31.1358C51.6592 30.6165 51.2397 30.1955 50.7222 30.1955Z"/>
<path d="M43.0541 20.7927C43.0541 22.9499 44.7966 24.6987 46.946 24.6987C49.0954 24.6987 50.8379 22.9499 50.8379 20.7927C50.8379 18.6355 49.0954 16.8867 46.946 16.8867C44.7966 16.8867 43.0541 18.6355 43.0541 20.7927Z"/>
<path d="M42.0451 12.1845C42.0451 13.8623 43.4003 15.2224 45.0721 15.2224C46.7439 15.2224 48.0991 13.8623 48.0991 12.1845C48.0991 10.5066 46.7439 9.14648 45.0721 9.14648C43.4003 9.14648 42.0451 10.5066 42.0451 12.1845Z"/>
<path d="M38.4415 5.8925C38.4415 7.01106 39.345 7.91782 40.4595 7.91782C41.574 7.91782 42.4775 7.01106 42.4775 5.8925C42.4775 4.77395 41.574 3.86719 40.4595 3.86719C39.345 3.86719 38.4415 4.77395 38.4415 5.8925Z"/>
<path d="M33.8288 2.27478C33.8288 3.07374 34.4741 3.72143 35.2702 3.72143C36.0663 3.72143 36.7117 3.07374 36.7117 2.27478C36.7117 1.47581 36.0663 0.828125 35.2702 0.828125C34.4741 0.828125 33.8288 1.47581 33.8288 2.27478Z"/>
<path d="M30.4416 1.11806C30.4416 1.63739 30.861 2.05839 31.3785 2.05839C31.8959 2.05839 32.3154 1.63739 32.3154 1.11806C32.3154 0.598732 31.8959 0.177734 31.3785 0.177734C30.861 0.177734 30.4416 0.598732 30.4416 1.11806Z"/>
<path d="M9.10825 30.9183C9.10825 28.761 7.36579 27.0123 5.21636 27.0123C3.06692 27.0123 1.32446 28.761 1.32446 30.9183C1.32446 33.0755 3.06692 34.8242 5.21636 34.8242C7.36579 34.8242 9.10825 33.0755 9.10825 30.9183Z"/>
<path d="M10.117 39.5265C10.117 37.8487 8.7618 36.4885 7.09002 36.4885C5.41823 36.4885 4.06299 37.8487 4.06299 39.5265C4.06299 41.2043 5.41823 42.5645 7.09002 42.5645C8.7618 42.5645 10.117 41.2043 10.117 39.5265Z"/>
<path d="M13.7209 45.8204C13.7209 44.7018 12.8174 43.7951 11.7028 43.7951C10.5883 43.7951 9.68481 44.7018 9.68481 45.8204C9.68481 46.9389 10.5883 47.8457 11.7028 47.8457C12.8174 47.8457 13.7209 46.9389 13.7209 45.8204Z"/>
<path d="M18.3333 49.4362C18.3333 48.6372 17.688 47.9895 16.8919 47.9895C16.0958 47.9895 15.4504 48.6372 15.4504 49.4362C15.4504 50.2351 16.0958 50.8828 16.8919 50.8828C17.688 50.8828 18.3333 50.2351 18.3333 49.4362Z"/>
<path d="M21.7208 50.5929C21.7208 50.0736 21.3013 49.6526 20.7839 49.6526C20.2664 49.6526 19.8469 50.0736 19.8469 50.5929C19.8469 51.1122 20.2664 51.5332 20.7839 51.5332C21.3013 51.5332 21.7208 51.1122 21.7208 50.5929Z"/>
<path d="M22.9442 42.7909C24.2369 43.5399 24.6798 45.1989 23.9334 46.4962C23.1871 47.7936 21.5342 48.2381 20.2415 47.4891C18.9488 46.74 18.5059 45.0811 19.2522 43.7837C19.9986 42.4864 21.6515 42.0419 22.9442 42.7909Z"/>
<path d="M17.054 38.5145C18.0192 39.0738 18.3499 40.3124 17.7926 41.2811C17.2354 42.2498 16.0012 42.5817 15.036 42.0224C14.0708 41.4631 13.7401 40.2245 14.2973 39.2558C14.8546 38.2871 16.0888 37.9552 17.054 38.5145Z"/>
<path d="M13.5324 33.8677C14.2046 34.2572 14.4349 35.1198 14.0468 35.7944C13.6588 36.4691 12.7992 36.7002 12.127 36.3107C11.4548 35.9212 11.2245 35.0586 11.6126 34.384C12.0007 33.7093 12.8602 33.4782 13.5324 33.8677Z"/>
<path d="M11.8655 30.3044C12.3137 30.564 12.4672 31.1391 12.2085 31.5889C11.9497 32.0386 11.3767 32.1927 10.9286 31.9331C10.4805 31.6734 10.3269 31.0983 10.5857 30.6485C10.8444 30.1988 11.4174 30.0447 11.8655 30.3044Z"/>
<path d="M8.81532 22.4455C7.82385 23.5654 6.11556 23.6665 4.99975 22.6715C3.88394 21.6764 3.78315 19.962 4.77461 18.8421C5.76608 17.7223 7.47437 17.6211 8.59018 18.6162C9.70598 19.6112 9.80678 21.3257 8.81532 22.4455Z"/>
<path d="M12.889 17.0405C12.1487 17.8766 10.8732 17.9522 10.0401 17.2092C9.20695 16.4662 9.13168 15.1861 9.87198 14.3499C10.6123 13.5138 11.8878 13.4382 12.7209 14.1812C13.5541 14.9242 13.6293 16.2043 12.889 17.0405Z"/>
<path d="M17.8366 13.3774C17.321 13.9597 16.4327 14.0123 15.8525 13.4949C15.2723 12.9774 15.2199 12.0859 15.7354 11.5036C16.251 10.9213 17.1393 10.8687 17.7195 11.3861C18.2997 11.9035 18.3522 12.7951 17.8366 13.3774Z"/>
<path d="M21.3492 11.6591C21.0055 12.0473 20.4133 12.0824 20.0265 11.7375C19.6397 11.3925 19.6048 10.7982 19.9485 10.41C20.2922 10.0217 20.8844 9.98667 21.2712 10.3316C21.658 10.6766 21.6929 11.2709 21.3492 11.6591Z"/>
<path d="M43.5038 31.2052C42.7575 29.9078 43.2004 28.2489 44.4931 27.4999C45.7857 26.7509 47.4387 27.1954 48.185 28.4927C48.9314 29.7901 48.4885 31.449 47.1958 32.198C45.9031 32.9471 44.2501 32.5026 43.5038 31.2052Z"/>
<path d="M38.6578 36.869C38.1005 35.9003 38.4312 34.6616 39.3964 34.1024C40.3616 33.5431 41.5958 33.875 42.1531 34.8437C42.7104 35.8124 42.3797 37.051 41.4145 37.6103C40.4493 38.1696 39.2151 37.8377 38.6578 36.869Z"/>
<path d="M33.8108 40.1343C33.4227 39.4597 33.653 38.597 34.3252 38.2075C34.9974 37.818 35.857 38.0492 36.2451 38.7238C36.6331 39.3984 36.4028 40.2611 35.7306 40.6506C35.0584 41.0401 34.1989 40.8089 33.8108 40.1343Z"/>
<path d="M30.2612 41.0635C30.0025 40.6137 30.1561 40.0386 30.6042 39.779C31.0523 39.5193 31.6253 39.6734 31.8841 40.1232C32.1428 40.5729 31.9893 41.148 31.5411 41.4077C31.093 41.6673 30.52 41.5132 30.2612 41.0635Z"/>
<path d="M28.5184 4.86374C29.935 4.39145 31.4648 5.16107 31.9354 6.58273C32.406 8.0044 31.6391 9.53975 30.2226 10.012C28.806 10.4843 27.2762 9.7147 26.8056 8.29304C26.3351 6.87137 27.1019 5.33602 28.5184 4.86374Z"/>
<path d="M35.2394 9.35141C36.297 8.99877 37.4393 9.57342 37.7907 10.6349C38.142 11.6964 37.5695 12.8428 36.5118 13.1955C35.4541 13.5481 34.3118 12.9735 33.9605 11.912C33.6091 10.8504 34.1817 9.70405 35.2394 9.35141Z"/>
<path d="M38.6942 15.0891C39.4308 14.8436 40.2263 15.2438 40.471 15.983C40.7157 16.7223 40.3169 17.5207 39.5803 17.7663C38.8437 18.0118 38.0482 17.6116 37.8035 16.8724C37.5588 16.1331 37.9576 15.3347 38.6942 15.0891Z"/>
<path d="M40.2676 19.7879C40.7587 19.6242 41.289 19.891 41.4522 20.3839C41.6153 20.8767 41.3495 21.409 40.8584 21.5727C40.3673 21.7364 39.837 21.4696 39.6739 20.9768C39.5107 20.4839 39.7766 19.9517 40.2676 19.7879Z"/>
</svg>
