<svg viewBox="0 0 181 38" xmlns="http://www.w3.org/2000/svg">
<path d="M59.2861 28.0986H55.6459L49.0889 16.6764V28.0986H45.6859V10.7476H49.3261L55.8831 22.1818V10.7476H59.2861V28.0986Z"/>
<path d="M74.1906 21.5042C74.1906 22.4722 74.0206 23.3757 73.6807 24.2146C73.3408 25.0454 72.8784 25.7674 72.2934 26.3804C71.7085 26.9854 71.0207 27.4654 70.2303 27.8203C69.4477 28.1672 68.6058 28.3406 67.7047 28.3406C66.8114 28.3406 65.9696 28.1672 65.1791 27.8203C64.3965 27.4654 63.7088 26.9854 63.116 26.3804C62.531 25.7674 62.0686 25.0454 61.7287 24.2146C61.3888 23.3757 61.2188 22.4722 61.2188 21.5042C61.2188 20.5201 61.3888 19.6086 61.7287 18.7697C62.0686 17.9308 62.531 17.2088 63.116 16.6038C63.7088 15.9908 64.3965 15.5108 65.1791 15.164C65.9696 14.8171 66.8114 14.6437 67.7047 14.6437C68.6058 14.6437 69.4477 14.809 70.2303 15.1398C71.0207 15.4624 71.7085 15.9262 72.2934 16.5312C72.8784 17.1282 73.3408 17.8501 73.6807 18.6971C74.0206 19.536 74.1906 20.4717 74.1906 21.5042ZM70.9298 21.5042C70.9298 20.9718 70.8429 20.4919 70.669 20.0644C70.503 19.6288 70.2737 19.2577 69.9813 18.9512C69.6888 18.6366 69.3449 18.3986 68.9497 18.2373C68.5624 18.0679 68.1474 17.9832 67.7047 17.9832C67.262 17.9832 66.8431 18.0679 66.4478 18.2373C66.0605 18.3986 65.7206 18.6366 65.4281 18.9512C65.1435 19.2577 64.9182 19.6288 64.7522 20.0644C64.5862 20.4919 64.5033 20.9718 64.5033 21.5042C64.5033 22.0044 64.5862 22.4682 64.7522 22.8957C64.9182 23.3232 65.1435 23.6943 65.4281 24.0089C65.7206 24.3235 66.0605 24.5735 66.4478 24.7591C66.8431 24.9365 67.262 25.0253 67.7047 25.0253C68.1474 25.0253 68.5624 24.9406 68.9497 24.7712C69.3449 24.6018 69.6888 24.3638 69.9813 24.0573C70.2737 23.7507 70.503 23.3797 70.669 22.9441C70.8429 22.5085 70.9298 22.0286 70.9298 21.5042Z"/>
<path d="M88.2295 28.0986H76.3249V10.7476H79.7279V24.626H88.2295V28.0986Z"/>
<path d="M101.604 21.5042C101.604 22.4722 101.434 23.3757 101.094 24.2146C100.755 25.0454 100.292 25.7674 99.7072 26.3804C99.1222 26.9854 98.4345 27.4654 97.6441 27.8203C96.8615 28.1672 96.0196 28.3406 95.1185 28.3406C94.2252 28.3406 93.3834 28.1672 92.5929 27.8203C91.8103 27.4654 91.1226 26.9854 90.5297 26.3804C89.9448 25.7674 89.4824 25.0454 89.1425 24.2146C88.8026 23.3757 88.6326 22.4722 88.6326 21.5042C88.6326 20.5201 88.8026 19.6086 89.1425 18.7697C89.4824 17.9308 89.9448 17.2088 90.5297 16.6038C91.1226 15.9908 91.8103 15.5108 92.5929 15.164C93.3834 14.8171 94.2252 14.6437 95.1185 14.6437C96.0196 14.6437 96.8615 14.809 97.6441 15.1398C98.4345 15.4624 99.1222 15.9262 99.7072 16.5312C100.292 17.1282 100.755 17.8501 101.094 18.6971C101.434 19.536 101.604 20.4717 101.604 21.5042ZM98.3436 21.5042C98.3436 20.9718 98.2567 20.4919 98.0828 20.0644C97.9168 19.6288 97.6875 19.2577 97.3951 18.9512C97.1026 18.6366 96.7587 18.3986 96.3635 18.2373C95.9761 18.0679 95.5611 17.9832 95.1185 17.9832C94.6758 17.9832 94.2569 18.0679 93.8616 18.2373C93.4743 18.3986 93.1344 18.6366 92.8419 18.9512C92.5573 19.2577 92.332 19.6288 92.166 20.0644C92 20.4919 91.917 20.9718 91.917 21.5042C91.917 22.0044 92 22.4682 92.166 22.8957C92.332 23.3232 92.5573 23.6943 92.8419 24.0089C93.1344 24.3235 93.4743 24.5735 93.8616 24.7591C94.2569 24.9365 94.6758 25.0253 95.1185 25.0253C95.5611 25.0253 95.9761 24.9406 96.3635 24.7712C96.7587 24.6018 97.1026 24.3638 97.3951 24.0573C97.6875 23.7507 97.9168 23.3797 98.0828 22.9441C98.2567 22.5085 98.3436 22.0286 98.3436 21.5042Z"/>
<path d="M115.667 21.5042C115.667 22.4722 115.497 23.3757 115.157 24.2146C114.817 25.0454 114.355 25.7674 113.77 26.3804C113.185 26.9854 112.497 27.4654 111.707 27.8203C110.924 28.1672 110.082 28.3406 109.181 28.3406C108.288 28.3406 107.446 28.1672 106.656 27.8203C105.873 27.4654 105.185 26.9854 104.592 26.3804C104.007 25.7674 103.545 25.0454 103.205 24.2146C102.865 23.3757 102.695 22.4722 102.695 21.5042C102.695 20.5201 102.865 19.6086 103.205 18.7697C103.545 17.9308 104.007 17.2088 104.592 16.6038C105.185 15.9908 105.873 15.5108 106.656 15.164C107.446 14.8171 108.288 14.6437 109.181 14.6437C110.082 14.6437 110.924 14.809 111.707 15.1398C112.497 15.4624 113.185 15.9262 113.77 16.5312C114.355 17.1282 114.817 17.8501 115.157 18.6971C115.497 19.536 115.667 20.4717 115.667 21.5042ZM112.406 21.5042C112.406 20.9718 112.319 20.4919 112.145 20.0644C111.979 19.6288 111.75 19.2577 111.458 18.9512C111.165 18.6366 110.821 18.3986 110.426 18.2373C110.039 18.0679 109.624 17.9832 109.181 17.9832C108.738 17.9832 108.319 18.0679 107.924 18.2373C107.537 18.3986 107.197 18.6366 106.905 18.9512C106.62 19.2577 106.395 19.6288 106.229 20.0644C106.063 20.4919 105.98 20.9718 105.98 21.5042C105.98 22.0044 106.063 22.4682 106.229 22.8957C106.395 23.3232 106.62 23.6943 106.905 24.0089C107.197 24.3235 107.537 24.5735 107.924 24.7591C108.319 24.9365 108.738 25.0253 109.181 25.0253C109.624 25.0253 110.039 24.9406 110.426 24.7712C110.821 24.6018 111.165 24.3638 111.458 24.0573C111.75 23.7507 111.979 23.3797 112.145 22.9441C112.319 22.5085 112.406 22.0286 112.406 21.5042Z"/>
<path d="M120.718 33.0353H117.457V15.1398H118.24L119.532 16.7006C119.825 16.4183 120.145 16.1521 120.493 15.902C120.841 15.652 121.2 15.4382 121.572 15.2608C121.951 15.0752 122.343 14.93 122.746 14.8252C123.149 14.7203 123.556 14.6679 123.967 14.6679C124.86 14.6679 125.698 14.8332 126.481 15.164C127.271 15.4866 127.959 15.9464 128.544 16.5433C129.137 17.1403 129.603 17.8622 129.943 18.7092C130.283 19.5481 130.453 20.4798 130.453 21.5042C130.453 22.569 130.283 23.5289 129.943 24.384C129.603 25.231 129.137 25.9529 128.544 26.5498C127.959 27.1387 127.271 27.5904 126.481 27.905C125.698 28.2196 124.86 28.3769 123.967 28.3769C123.682 28.3769 123.398 28.3446 123.113 28.2801C122.837 28.2156 122.56 28.1309 122.283 28.026C122.014 27.9131 121.746 27.788 121.477 27.6509C121.216 27.5138 120.963 27.3726 120.718 27.2274V33.0353ZM127.204 21.5042C127.204 20.9557 127.117 20.4637 126.943 20.0281C126.777 19.5925 126.548 19.2254 126.255 18.927C125.963 18.6205 125.619 18.3865 125.224 18.2252C124.829 18.0639 124.41 17.9832 123.967 17.9832C123.524 17.9832 123.105 18.0639 122.71 18.2252C122.323 18.3865 121.983 18.6205 121.69 18.927C121.398 19.2254 121.165 19.5925 120.991 20.0281C120.825 20.4637 120.742 20.9557 120.742 21.5042C120.742 22.0286 120.825 22.5085 120.991 22.9441C121.165 23.3797 121.398 23.7507 121.69 24.0573C121.983 24.3638 122.323 24.6018 122.71 24.7712C123.105 24.9406 123.524 25.0253 123.967 25.0253C124.41 25.0253 124.829 24.9406 125.224 24.7712C125.619 24.6018 125.963 24.3638 126.255 24.0573C126.548 23.7507 126.777 23.3797 126.943 22.9441C127.117 22.5085 127.204 22.0286 127.204 21.5042Z"/>
<path d="M139.737 28.0986H136.346V14.2202H131.235V10.7476H144.836V14.2202H139.737V28.0986Z"/>
<path d="M149.353 24.9285C149.48 24.9688 149.606 24.997 149.733 25.0132C149.859 25.0212 149.986 25.0253 150.112 25.0253C150.428 25.0253 150.733 24.9809 151.025 24.8922C151.318 24.8034 151.59 24.6784 151.843 24.5171C152.104 24.3477 152.333 24.146 152.531 23.9121C152.736 23.6701 152.902 23.4039 153.029 23.1135L155.4 25.5455C155.1 25.9811 154.752 26.3724 154.357 26.7192C153.97 27.0661 153.547 27.3605 153.088 27.6025C152.638 27.8445 152.159 28.026 151.653 28.147C151.155 28.2761 150.642 28.3406 150.112 28.3406C149.219 28.3406 148.377 28.1712 147.586 27.8324C146.804 27.4936 146.116 27.0217 145.523 26.4167C144.938 25.8117 144.476 25.0938 144.136 24.263C143.796 23.4241 143.626 22.5045 143.626 21.5042C143.626 20.4798 143.796 19.5441 144.136 18.6971C144.476 17.8501 144.938 17.1282 145.523 16.5312C146.116 15.9343 146.804 15.4705 147.586 15.1398C148.377 14.809 149.219 14.6437 150.112 14.6437C150.642 14.6437 151.159 14.7082 151.665 14.8373C152.171 14.9663 152.649 15.1519 153.1 15.3939C153.559 15.6359 153.985 15.9343 154.381 16.2892C154.776 16.6361 155.124 17.0273 155.424 17.4629L149.353 24.9285ZM151.013 18.1163C150.863 18.0598 150.713 18.0235 150.563 18.0074C150.42 17.9913 150.27 17.9832 150.112 17.9832C149.669 17.9832 149.25 18.0679 148.855 18.2373C148.468 18.3986 148.128 18.6326 147.835 18.9391C147.551 19.2456 147.326 19.6167 147.16 20.0523C146.994 20.4798 146.911 20.9638 146.911 21.5042C146.911 21.6252 146.915 21.7624 146.922 21.9156C146.938 22.0689 146.958 22.2262 146.982 22.3875C147.013 22.5408 147.049 22.69 147.088 22.8352C147.128 22.9804 147.179 23.1095 147.243 23.2224L151.013 18.1163Z"/>
<path d="M168.064 17.717L165.692 20.1491C165.574 19.8103 165.412 19.5078 165.206 19.2416C165.001 18.9673 164.768 18.7374 164.507 18.5519C164.254 18.3664 163.977 18.2252 163.677 18.1284C163.376 18.0316 163.068 17.9832 162.752 17.9832C162.309 17.9832 161.89 18.076 161.495 18.2615C161.108 18.447 160.768 18.7092 160.475 19.048C160.191 19.3787 159.965 19.774 159.799 20.2338C159.633 20.6935 159.55 21.2017 159.55 21.7583C159.55 22.21 159.633 22.6335 159.799 23.0288C159.965 23.4241 160.191 23.7709 160.475 24.0694C160.768 24.3678 161.108 24.6018 161.495 24.7712C161.89 24.9406 162.309 25.0253 162.752 25.0253C163.068 25.0253 163.372 24.9809 163.665 24.8922C163.957 24.8034 164.23 24.6784 164.483 24.5171C164.744 24.3477 164.973 24.146 165.171 23.9121C165.376 23.6701 165.542 23.4039 165.669 23.1135L168.04 25.5455C167.74 25.9811 167.392 26.3724 166.997 26.7192C166.609 27.0661 166.186 27.3605 165.728 27.6025C165.277 27.8445 164.799 28.026 164.293 28.147C163.795 28.2761 163.281 28.3406 162.752 28.3406C161.859 28.3406 161.017 28.1712 160.226 27.8324C159.444 27.4855 158.756 27.0136 158.163 26.4167C157.578 25.8198 157.116 25.1221 156.776 24.3235C156.436 23.5249 156.266 22.6698 156.266 21.7583C156.266 20.7661 156.436 19.8385 156.776 18.9754C157.116 18.1123 157.578 17.3621 158.163 16.7248C158.756 16.0795 159.444 15.5713 160.226 15.2003C161.017 14.8292 161.859 14.6437 162.752 14.6437C163.281 14.6437 163.799 14.7122 164.305 14.8494C164.819 14.9865 165.305 15.1882 165.764 15.4544C166.23 15.7125 166.657 16.0311 167.044 16.4102C167.439 16.7894 167.779 17.225 168.064 17.717Z"/>
<path d="M172.89 28.0986H169.653V9.98527H172.89V15.7084C173.277 15.41 173.676 15.2003 174.087 15.0793C174.498 14.9502 174.917 14.8857 175.344 14.8857C176.127 14.8857 176.862 15.0389 177.55 15.3455C178.237 15.6439 178.834 16.0593 179.34 16.5917C179.854 17.1161 180.257 17.7331 180.549 18.443C180.85 19.1448 181 19.895 181 20.6935V28.0986H177.739V20.6935H177.763C177.763 20.3548 177.7 20.0361 177.573 19.7377C177.447 19.4311 177.273 19.1649 177.052 18.9391C176.83 18.7132 176.573 18.5358 176.281 18.4067C175.988 18.2776 175.676 18.2131 175.344 18.2131C175.004 18.2131 174.684 18.2776 174.384 18.4067C174.083 18.5358 173.822 18.7132 173.601 18.9391C173.38 19.1649 173.206 19.4311 173.079 19.7377C172.953 20.0361 172.89 20.3548 172.89 20.6935V28.0986Z"/>
<path d="M17.7799 3.47887C17.7799 5.07505 16.5119 6.36901 14.9477 6.36901C13.3835 6.36901 12.1155 5.07505 12.1155 3.47887C12.1155 1.88269 13.3835 0.588733 14.9477 0.588733C16.5119 0.588733 17.7799 1.88269 17.7799 3.47887Z"/>
<path d="M10.9092 4.87042C10.9092 6.1119 9.92298 7.11831 8.70639 7.11831C7.48981 7.11831 6.50357 6.1119 6.50357 4.87042C6.50357 3.62895 7.48981 2.62254 8.70639 2.62254C9.92298 2.62254 10.9092 3.62895 10.9092 4.87042Z"/>
<path d="M5.61195 8.29578C5.61195 9.12342 4.95446 9.79437 4.1434 9.79437C3.33235 9.79437 2.67486 9.12342 2.67486 8.29578C2.67486 7.46813 3.33235 6.79718 4.1434 6.79718C4.95446 6.79718 5.61195 7.46813 5.61195 8.29578Z"/>
<path d="M2.56996 12.1493C2.56996 12.7405 2.10032 13.2197 1.521 13.2197C0.94167 13.2197 0.472033 12.7405 0.472033 12.1493C0.472033 11.5581 0.94167 11.0789 1.521 11.0789C2.10032 11.0789 2.56996 11.5581 2.56996 12.1493Z"/>
<path d="M1.36365 15.0394C1.36365 15.4237 1.05839 15.7352 0.681826 15.7352C0.305264 15.7352 0 15.4237 0 15.0394C0 14.6552 0.305264 14.3437 0.681826 14.3437C1.05839 14.3437 1.36365 14.6552 1.36365 15.0394Z"/>
<path d="M19.5315 34.4676C19.5315 32.8714 20.7995 31.5775 22.3637 31.5775C23.9279 31.5775 25.1959 32.8714 25.1959 34.4676C25.1959 36.0638 23.9279 37.3577 22.3637 37.3577C20.7995 37.3577 19.5315 36.0638 19.5315 34.4676Z"/>
<path d="M26.4022 33.0761C26.4022 31.8346 27.3884 30.8282 28.605 30.8282C29.8216 30.8282 30.8078 31.8346 30.8078 33.0761C30.8078 34.3175 29.8216 35.3239 28.605 35.3239C27.3884 35.3239 26.4022 34.3175 26.4022 33.0761Z"/>
<path d="M31.6994 29.6507C31.6994 28.8231 32.3569 28.1521 33.168 28.1521C33.979 28.1521 34.6365 28.8231 34.6365 29.6507C34.6365 30.4784 33.979 31.1493 33.168 31.1493C32.3569 31.1493 31.6994 30.4784 31.6994 29.6507Z"/>
<path d="M34.7414 25.7972C34.7414 25.206 35.2111 24.7268 35.7904 24.7268C36.3697 24.7268 36.8394 25.206 36.8394 25.7972C36.8394 26.3884 36.3697 26.8676 35.7904 26.8676C35.2111 26.8676 34.7414 26.3884 34.7414 25.7972Z"/>
<path d="M35.9477 22.907C35.9477 22.5228 36.253 22.2113 36.6296 22.2113C37.0061 22.2113 37.3114 22.5228 37.3114 22.907C37.3114 23.2913 37.0061 23.6028 36.6296 23.6028C36.253 23.6028 35.9477 23.2913 35.9477 22.907Z"/>
<path d="M33.8815 18.1437C32.3173 18.1437 31.0493 16.8497 31.0493 15.2535C31.0493 13.6573 32.3173 12.3634 33.8815 12.3634C35.4457 12.3634 36.7137 13.6573 36.7137 15.2535C36.7137 16.8497 35.4457 18.1437 33.8815 18.1437Z"/>
<path d="M32.5179 11.1324C31.3013 11.1324 30.315 10.126 30.315 8.88451C30.315 7.64303 31.3013 6.63662 32.5179 6.63662C33.7344 6.63662 34.7207 7.64303 34.7207 8.88451C34.7207 10.126 33.7344 11.1324 32.5179 11.1324Z"/>
<path d="M29.1612 5.72676C28.3501 5.72676 27.6926 5.05582 27.6926 4.22817C27.6926 3.40052 28.3501 2.72958 29.1612 2.72958C29.9722 2.72958 30.6297 3.40052 30.6297 4.22817C30.6297 5.05582 29.9722 5.72676 29.1612 5.72676Z"/>
<path d="M25.3849 2.62253C24.8056 2.62253 24.3359 2.14329 24.3359 1.55211C24.3359 0.960935 24.8056 0.48169 25.3849 0.48169C25.9642 0.48169 26.4339 0.960935 26.4339 1.55211C26.4339 2.14329 25.9642 2.62253 25.3849 2.62253Z"/>
<path d="M22.5527 1.39155C22.1761 1.39155 21.8709 1.08004 21.8709 0.695774C21.8709 0.311509 22.1761 -1.67968e-08 22.5527 0C22.9293 1.67968e-08 23.2345 0.311509 23.2345 0.695775C23.2345 1.08004 22.9293 1.39155 22.5527 1.39155Z"/>
<path d="M3.51403 19.8563C5.07821 19.8563 6.34623 21.1503 6.34623 22.7465C6.34623 24.3427 5.07821 25.6366 3.51403 25.6366C1.94985 25.6366 0.681825 24.3427 0.681825 22.7465C0.681825 21.1503 1.94984 19.8563 3.51403 19.8563Z"/>
<path d="M4.87768 26.8676C6.09426 26.8676 7.0805 27.874 7.0805 29.1155C7.0805 30.357 6.09426 31.3634 4.87768 31.3634C3.66109 31.3634 2.67486 30.357 2.67486 29.1155C2.67486 27.874 3.66109 26.8676 4.87768 26.8676Z"/>
<path d="M8.23436 32.2732C9.04542 32.2732 9.70291 32.9442 9.70291 33.7718C9.70291 34.5995 9.04542 35.2704 8.23436 35.2704C7.4233 35.2704 6.76581 34.5995 6.76581 33.7718C6.76581 32.9442 7.4233 32.2732 8.23436 32.2732Z"/>
<path d="M12.0106 35.3775C12.59 35.3775 13.0596 35.8567 13.0596 36.4479C13.0596 37.0391 12.59 37.5183 12.0106 37.5183C11.4313 37.5183 10.9617 37.0391 10.9617 36.4479C10.9617 35.8567 11.4313 35.3775 12.0106 35.3775Z"/>
<path d="M14.8428 36.6084C15.2194 36.6084 15.5247 36.92 15.5247 37.3042C15.5247 37.6885 15.2194 38 14.8428 38C14.4663 38 14.161 37.6885 14.161 37.3042C14.161 36.92 14.4663 36.6084 14.8428 36.6084Z"/>
<path d="M17.1349 34.2721C17.678 33.3121 17.3557 32.0847 16.415 31.5304C15.4743 30.9762 14.2714 31.3051 13.7283 32.2651C13.1852 33.225 13.5075 34.4525 14.4482 35.0067C15.3889 35.561 16.5918 35.2321 17.1349 34.2721Z"/>
<path d="M12.6661 30.4133C13.0716 29.6965 12.831 28.78 12.1286 28.3662C11.4262 27.9524 10.528 28.198 10.1225 28.9147C9.71696 29.6315 9.95762 30.548 10.66 30.9618C11.3624 31.3757 12.2606 31.1301 12.6661 30.4133Z"/>
<path d="M9.94023 26.3531C10.2227 25.854 10.0551 25.2157 9.56589 24.9275C9.07672 24.6393 8.45122 24.8103 8.1688 25.3095C7.88638 25.8086 8.05398 26.4469 8.54315 26.7351C9.03232 27.0233 9.65781 26.8523 9.94023 26.3531Z"/>
<path d="M8.60237 23.242C8.79065 22.9092 8.67892 22.4837 8.3528 22.2915C8.02669 22.0994 7.60969 22.2134 7.42141 22.5462C7.23313 22.879 7.34487 23.3045 7.67098 23.4967C7.99709 23.6888 8.41409 23.5748 8.60237 23.242Z"/>
<path d="M3.35646 16.6436C4.16846 17.3799 5.41161 17.3051 6.13312 16.4764C6.85463 15.6478 6.78127 14.3793 5.96928 13.643C5.15728 12.9067 3.91413 12.9816 3.19262 13.8102C2.47111 14.6388 2.54447 15.9074 3.35646 16.6436Z"/>
<path d="M7.02443 12.6021C7.63072 13.1518 8.55894 13.0959 9.09766 12.4773C9.63639 11.8586 9.58162 10.9114 8.97533 10.3616C8.36904 9.81186 7.44082 9.86775 6.90209 10.4864C6.36337 11.1051 6.41814 12.0523 7.02443 12.6021Z"/>
<path d="M11.2542 9.85357C11.6764 10.2364 12.3228 10.1975 12.698 9.76663C13.0732 9.33575 13.0351 8.67609 12.6128 8.29323C12.1906 7.91037 11.5441 7.94929 11.169 8.38017C10.7938 8.81104 10.8319 9.47071 11.2542 9.85357Z"/>
<path d="M14.2916 8.55395C14.5731 8.80919 15.004 8.78324 15.2541 8.49599C15.5043 8.20874 15.4788 7.76897 15.1973 7.51373C14.9159 7.25849 14.4849 7.28444 14.2348 7.57169C13.9846 7.85894 14.0101 8.29871 14.2916 8.55395Z"/>
<path d="M32.0965 20.2171C31.1558 20.7713 30.8335 21.9988 31.3766 22.9588C31.9197 23.9187 33.1226 24.2476 34.0633 23.6934C35.004 23.1392 35.3263 21.9117 34.7832 20.9517C34.2401 19.9918 33.0372 19.6629 32.0965 20.2171Z"/>
<path d="M28.3875 25.1014C27.6851 25.5152 27.4444 26.4318 27.85 27.1485C28.2555 27.8653 29.1536 28.1109 29.856 27.697C30.5584 27.2832 30.7991 26.3667 30.3936 25.6499C29.988 24.9332 29.0899 24.6876 28.3875 25.1014Z"/>
<path d="M24.6972 28.1387C24.208 28.4269 24.0404 29.0652 24.3228 29.5644C24.6053 30.0636 25.2308 30.2346 25.7199 29.9464C26.2091 29.6582 26.3767 29.0199 26.0943 28.5207C25.8118 28.0216 25.1864 27.8505 24.6972 28.1387Z"/>
<path d="M21.9893 29.3028C21.6632 29.4949 21.5515 29.9205 21.7398 30.2533C21.928 30.586 22.345 30.7001 22.6711 30.5079C22.9973 30.3158 23.109 29.8903 22.9207 29.5575C22.7324 29.2247 22.3154 29.1107 21.9893 29.3028Z"/>
<path d="M22.958 4.73939C22.6155 3.68746 21.5022 3.11799 20.4714 3.46745C19.4405 3.81691 18.8825 4.95296 19.225 6.00489C19.5674 7.05682 20.6807 7.62629 21.7115 7.27683C22.7424 6.92737 23.3004 5.79132 22.958 4.73939Z"/>
<path d="M27.2191 7.73766C26.9634 6.95222 26.1322 6.52702 25.3625 6.78795C24.5928 7.04888 24.1761 7.89713 24.4318 8.68258C24.6875 9.46802 25.5187 9.89322 26.2884 9.63229C27.0581 9.37136 27.4748 8.52311 27.2191 7.73766Z"/>
<path d="M29.1695 11.6947C28.9914 11.1477 28.4125 10.8515 27.8765 11.0333C27.3405 11.215 27.0503 11.8057 27.2283 12.3527C27.4064 12.8997 27.9853 13.1959 28.5214 13.0141C29.0574 12.8324 29.3476 12.2417 29.1695 11.6947Z"/>
<path d="M29.8835 14.9504C29.7648 14.5858 29.3789 14.3883 29.0215 14.5095C28.6641 14.6306 28.4707 15.0245 28.5894 15.3891C28.7081 15.7538 29.0941 15.9512 29.4514 15.8301C29.8088 15.7089 30.0022 15.3151 29.8835 14.9504Z"/>
</svg>
