<svg width="247" height="162" viewBox="0 0 247 150" fill="none" xmlns="http://www.w3.org/2000/svg">
<g filter="url(#filter0_d_5828_9523)">
<path d="M18.8999 30.9004C18.8999 24.273 24.2725 18.9004 30.8999 18.9004H215.9C222.527 18.9004 227.9 24.273 227.9 30.9004V178.9H18.8999V30.9004Z" fill="#1E50EF" shape-rendering="crispEdges"/>
<path d="M30.8999 19.4004H215.9C222.251 19.4004 227.4 24.5491 227.4 30.9004V178.4H19.3999V30.9004C19.3999 24.5491 24.5486 19.4004 30.8999 19.4004Z" stroke="#D4D4D8" shape-rendering="crispEdges"/>
<path d="M42.934 62.9004H37.6613L45.6954 39.6277H52.0363L60.059 62.9004H54.7863L48.9567 44.9458H48.7749L42.934 62.9004ZM42.6044 53.7527H55.059V57.5936H42.6044V53.7527ZM67.7465 63.2299C66.6329 63.2299 65.6404 63.0368 64.7692 62.6504C63.898 62.2565 63.2086 61.6769 62.701 60.9118C62.201 60.139 61.951 59.1769 61.951 58.0254C61.951 57.0557 62.1291 56.2413 62.4851 55.5822C62.8412 54.9231 63.326 54.3928 63.9397 53.9913C64.5533 53.5898 65.2503 53.2868 66.0306 53.0822C66.8185 52.8777 67.6442 52.7337 68.5079 52.6504C69.523 52.5443 70.3412 52.4458 70.9624 52.3549C71.5836 52.2565 72.0344 52.1125 72.3147 51.9231C72.595 51.7337 72.7351 51.4534 72.7351 51.0822V51.014C72.7351 50.2943 72.5079 49.7375 72.0533 49.3436C71.6063 48.9496 70.97 48.7527 70.1442 48.7527C69.273 48.7527 68.5798 48.9458 68.0647 49.3322C67.5495 49.711 67.2086 50.1883 67.0419 50.764L62.5647 50.4004C62.7919 49.3398 63.2389 48.4231 63.9056 47.6504C64.5723 46.8701 65.4321 46.2716 66.4851 45.8549C67.5457 45.4307 68.773 45.2186 70.1669 45.2186C71.1366 45.2186 72.0647 45.3322 72.951 45.5595C73.845 45.7868 74.6366 46.139 75.326 46.6163C76.023 47.0936 76.5723 47.7072 76.9738 48.4572C77.3753 49.1996 77.576 50.0898 77.576 51.1277V62.9004H72.9851V60.4799H72.8488C72.5685 61.0254 72.1935 61.5065 71.7238 61.9231C71.2541 62.3322 70.6897 62.6542 70.0306 62.889C69.3715 63.1163 68.6101 63.2299 67.7465 63.2299ZM69.1329 59.889C69.845 59.889 70.4738 59.7489 71.0192 59.4686C71.5647 59.1807 71.9927 58.7943 72.3033 58.3095C72.6139 57.8246 72.7692 57.2754 72.7692 56.6618V54.8095C72.6177 54.908 72.4094 54.9989 72.1442 55.0822C71.8866 55.158 71.595 55.2299 71.2692 55.2981C70.9435 55.3587 70.6177 55.4155 70.2919 55.4686C69.9662 55.514 69.6707 55.5557 69.4056 55.5936C68.8374 55.6769 68.3412 55.8095 67.9169 55.9913C67.4927 56.1731 67.1632 56.4193 66.9283 56.7299C66.6935 57.033 66.576 57.4118 66.576 57.8663C66.576 58.5254 66.8147 59.0292 67.2919 59.3777C67.7768 59.7186 68.3904 59.889 69.1329 59.889Z" fill="#E6E6E6"/>
<rect x="36.8999" y="83.9004" width="111" height="20" rx="4" fill="#FEFEFE"/>
<rect x="51.8999" y="89.9004" width="83" height="8" rx="4" fill="#D8D8D8"/>
<rect x="36.8999" y="135.4" width="77" height="8" rx="4" fill="#D4D4D8" fill-opacity="0.8"/>
<rect x="36.8999" y="147.4" width="173" height="20" rx="4" fill="#E1E1E1" fill-opacity="0.54"/>
</g>
<defs>
<filter id="filter0_d_5828_9523" x="-9.72748e-05" y="0.000391006" width="246.8" height="201.8" filterUnits="userSpaceOnUse" color-interpolation-filters="sRGB">
<feFlood flood-opacity="0" result="BackgroundImageFix"/>
<feColorMatrix in="SourceAlpha" type="matrix" values="0 0 0 0 0 0 0 0 0 0 0 0 0 0 0 0 0 0 127 0" result="hardAlpha"/>
<feOffset/>
<feGaussianBlur stdDeviation="9.45"/>
<feComposite in2="hardAlpha" operator="out"/>
<feColorMatrix type="matrix" values="0 0 0 0 0 0 0 0 0 0 0 0 0 0 0 0 0 0 0.15 0"/>
<feBlend mode="normal" in2="BackgroundImageFix" result="effect1_dropShadow_5828_9523"/>
<feBlend mode="normal" in="SourceGraphic" in2="effect1_dropShadow_5828_9523" result="shape"/>
</filter>
</defs>
</svg>
