<svg width="235" height="185" viewBox="8 10 230 190" fill="none" xmlns="http://www.w3.org/2000/svg">

<!-- <path d="M19 31C19 24.3726 24.3726 19 31 19H216C222.627 19 228 24.3726 228 31V201H19V31Z" fill="white" shape-rendering="crispEdges"/>
<path d="M31 19.5H216C222.351 19.5 227.5 24.6487 227.5 31V200.5H19.5V31C19.5 24.6487 24.6487 19.5 31 19.5Z" stroke="#D4D4D8" shape-rendering="crispEdges"/>
<path d="M19 31C19 24.3726 24.3726 19 31 19H216C222.627 19 228 24.3726 228 31V117H19V31Z" fill="#1E50EF"/>
<path d="M43.0375 63H37.7648L45.7989 39.7273H52.1398L60.1625 63H54.8898L49.0602 45.0455H48.8784L43.0375 63ZM42.708 53.8523H55.1625V57.6932H42.708V53.8523ZM67.85 63.3295C66.7364 63.3295 65.7439 63.1364 64.8727 62.75C64.0015 62.3561 63.3121 61.7765 62.8046 61.0114C62.3046 60.2386 62.0546 59.2765 62.0546 58.125C62.0546 57.1553 62.2326 56.3409 62.5886 55.6818C62.9447 55.0227 63.4296 54.4924 64.0432 54.0909C64.6568 53.6894 65.3538 53.3864 66.1341 53.1818C66.922 52.9773 67.7477 52.8333 68.6114 52.75C69.6265 52.6439 70.4447 52.5455 71.0659 52.4545C71.6871 52.3561 72.1379 52.2121 72.4182 52.0227C72.6985 51.8333 72.8386 51.553 72.8386 51.1818V51.1136C72.8386 50.3939 72.6114 49.8371 72.1568 49.4432C71.7099 49.0492 71.0735 48.8523 70.2477 48.8523C69.3765 48.8523 68.6833 49.0455 68.1682 49.4318C67.653 49.8106 67.3121 50.2879 67.1455 50.8636L62.6682 50.5C62.8955 49.4394 63.3424 48.5227 64.0091 47.75C64.6758 46.9697 65.5356 46.3712 66.5886 45.9545C67.6493 45.5303 68.8765 45.3182 70.2705 45.3182C71.2402 45.3182 72.1682 45.4318 73.0546 45.6591C73.9485 45.8864 74.7402 46.2386 75.4296 46.7159C76.1265 47.1932 76.6758 47.8068 77.0773 48.5568C77.4788 49.2992 77.6796 50.1894 77.6796 51.2273V63H73.0886V60.5795H72.9523C72.672 61.125 72.297 61.6061 71.8273 62.0227C71.3576 62.4318 70.7932 62.7538 70.1341 62.9886C69.475 63.2159 68.7136 63.3295 67.85 63.3295ZM69.2364 59.9886C69.9485 59.9886 70.5773 59.8485 71.1227 59.5682C71.6682 59.2803 72.0962 58.8939 72.4068 58.4091C72.7174 57.9242 72.8727 57.375 72.8727 56.7614V54.9091C72.7212 55.0076 72.5129 55.0985 72.2477 55.1818C71.9902 55.2576 71.6985 55.3295 71.3727 55.3977C71.047 55.4583 70.7212 55.5152 70.3955 55.5682C70.0697 55.6136 69.7743 55.6553 69.5091 55.6932C68.9409 55.7765 68.4447 55.9091 68.0205 56.0909C67.5962 56.2727 67.2667 56.5189 67.0318 56.8295C66.797 57.1326 66.6796 57.5114 66.6796 57.9659C66.6796 58.625 66.9182 59.1288 67.3955 59.4773C67.8803 59.8182 68.4939 59.9886 69.2364 59.9886Z" fill="#E6E6E6"/>
<rect x="37.0034" y="86" width="111" height="20" rx="4" fill="#FEFEFE"/>
<rect x="52.0034" y="92" width="83" height="8" rx="4" fill="#D8D8D8"/>
<rect x="36" y="141" width="77" height="8" rx="4" fill="#D4D4D8"/>
<rect x="36" y="153" width="175" height="20" rx="4" fill="#F4F4F5"/> -->

<g filter="url(#filter0_d_5217_11622)">
<path d="M19 31C19 24.3726 24.3726 19 31 19H216C222.627 19 228 24.3726 228 31V201H19V31Z" fill="white" shape-rendering="crispEdges"/>
<path d="M31 19.5H216C222.351 19.5 227.5 24.6487 227.5 31V200.5H19.5V31C19.5 24.6487 24.6487 19.5 31 19.5Z" stroke="#D4D4D8" shape-rendering="crispEdges"/>
<path d="M19 31C19 24.3726 24.3726 19 31 19H216C222.627 19 228 24.3726 228 31V117H19V31Z" fill="#1E50EF"/>
<path d="M43.0375 63H37.7648L45.7989 39.7273H52.1398L60.1625 63H54.8898L49.0602 45.0455H48.8784L43.0375 63ZM42.708 53.8523H55.1625V57.6932H42.708V53.8523ZM67.85 63.3295C66.7364 63.3295 65.7439 63.1364 64.8727 62.75C64.0015 62.3561 63.3121 61.7765 62.8046 61.0114C62.3046 60.2386 62.0546 59.2765 62.0546 58.125C62.0546 57.1553 62.2326 56.3409 62.5886 55.6818C62.9447 55.0227 63.4296 54.4924 64.0432 54.0909C64.6568 53.6894 65.3538 53.3864 66.1341 53.1818C66.922 52.9773 67.7477 52.8333 68.6114 52.75C69.6265 52.6439 70.4447 52.5455 71.0659 52.4545C71.6871 52.3561 72.1379 52.2121 72.4182 52.0227C72.6985 51.8333 72.8386 51.553 72.8386 51.1818V51.1136C72.8386 50.3939 72.6114 49.8371 72.1568 49.4432C71.7099 49.0492 71.0735 48.8523 70.2477 48.8523C69.3765 48.8523 68.6833 49.0455 68.1682 49.4318C67.653 49.8106 67.3121 50.2879 67.1455 50.8636L62.6682 50.5C62.8955 49.4394 63.3424 48.5227 64.0091 47.75C64.6758 46.9697 65.5356 46.3712 66.5886 45.9545C67.6493 45.5303 68.8765 45.3182 70.2705 45.3182C71.2402 45.3182 72.1682 45.4318 73.0546 45.6591C73.9485 45.8864 74.7402 46.2386 75.4296 46.7159C76.1265 47.1932 76.6758 47.8068 77.0773 48.5568C77.4788 49.2992 77.6796 50.1894 77.6796 51.2273V63H73.0886V60.5795H72.9523C72.672 61.125 72.297 61.6061 71.8273 62.0227C71.3576 62.4318 70.7932 62.7538 70.1341 62.9886C69.475 63.2159 68.7136 63.3295 67.85 63.3295ZM69.2364 59.9886C69.9485 59.9886 70.5773 59.8485 71.1227 59.5682C71.6682 59.2803 72.0962 58.8939 72.4068 58.4091C72.7174 57.9242 72.8727 57.375 72.8727 56.7614V54.9091C72.7212 55.0076 72.5129 55.0985 72.2477 55.1818C71.9902 55.2576 71.6985 55.3295 71.3727 55.3977C71.047 55.4583 70.7212 55.5152 70.3955 55.5682C70.0697 55.6136 69.7743 55.6553 69.5091 55.6932C68.9409 55.7765 68.4447 55.9091 68.0205 56.0909C67.5962 56.2727 67.2667 56.5189 67.0318 56.8295C66.797 57.1326 66.6796 57.5114 66.6796 57.9659C66.6796 58.625 66.9182 59.1288 67.3955 59.4773C67.8803 59.8182 68.4939 59.9886 69.2364 59.9886Z" fill="#E6E6E6"/>
<rect x="37.0034" y="86" width="111" height="20" rx="4" fill="#FEFEFE"/>
<rect x="52.0034" y="92" width="83" height="8" rx="4" fill="#D8D8D8"/>
<rect x="36" y="141" width="77" height="8" rx="4" fill="#D4D4D8"/>
<rect x="36" y="153" width="175" height="20" rx="4" fill="#F4F4F5"/>
</g>

<defs>
<filter id="filter0_d_5217_11622" x="0.1" y="0.1" width="246.8" height="219.8" filterUnits="userSpaceOnUse" color-interpolation-filters="sRGB">
<feFlood flood-opacity="0" result="BackgroundImageFix"/>
<feColorMatrix in="SourceAlpha" type="matrix" values="0 0 0 0 0 0 0 0 0 0 0 0 0 0 0 0 0 0 127 0" result="hardAlpha"/>
<feOffset/>
<feGaussianBlur stdDeviation="9.45"/>
<feComposite in2="hardAlpha" operator="out"/>
<feColorMatrix type="matrix" values="0 0 0 0 0 0 0 0 0 0 0 0 0 0 0 0 0 0 0.15 0"/>
<feBlend mode="normal" in2="BackgroundImageFix" result="effect1_dropShadow_5217_11622"/>
<feBlend mode="normal" in="SourceGraphic" in2="effect1_dropShadow_5217_11622" result="shape"/>
</filter>
</defs>
</svg>
