<svg width="247" height="162" viewBox="0 0 247 150" fill="none" xmlns="http://www.w3.org/2000/svg">
<g filter="url(#filter0_d_5828_9511)">
<path d="M18.8999 30.9004C18.8999 24.273 24.2725 18.9004 30.8999 18.9004H215.9C222.527 18.9004 227.9 24.273 227.9 30.9004V178.9H18.8999V30.9004Z" fill="white" shape-rendering="crispEdges"/>
<path d="M30.8999 19.4004H215.9C222.251 19.4004 227.4 24.5491 227.4 30.9004V178.4H19.3999V30.9004C19.3999 24.5491 24.5486 19.4004 30.8999 19.4004Z" stroke="#D4D4D8" shape-rendering="crispEdges"/>
<path d="M18.8999 30.9004C18.8999 24.273 24.2725 18.9004 30.8999 18.9004H215.9C222.527 18.9004 227.9 24.273 227.9 30.9004V116.9H18.8999V30.9004Z" fill="#1E50EF"/>
<path d="M42.9374 62.9004H37.6647L45.6988 39.6277H52.0397L60.0624 62.9004H54.7897L48.9601 44.9458H48.7783L42.9374 62.9004ZM42.6079 53.7527H55.0624V57.5936H42.6079V53.7527ZM67.7499 63.2299C66.6363 63.2299 65.6439 63.0368 64.7726 62.6504C63.9014 62.2565 63.212 61.6769 62.7045 60.9118C62.2045 60.139 61.9545 59.1769 61.9545 58.0254C61.9545 57.0557 62.1325 56.2413 62.4885 55.5822C62.8446 54.9231 63.3295 54.3928 63.9431 53.9913C64.5567 53.5898 65.2537 53.2868 66.034 53.0822C66.8219 52.8777 67.6476 52.7337 68.5113 52.6504C69.5264 52.5443 70.3446 52.4458 70.9658 52.3549C71.587 52.2565 72.0378 52.1125 72.3181 51.9231C72.5984 51.7337 72.7385 51.4534 72.7385 51.0822V51.014C72.7385 50.2943 72.5113 49.7375 72.0567 49.3436C71.6098 48.9496 70.9734 48.7527 70.1476 48.7527C69.2764 48.7527 68.5832 48.9458 68.0681 49.3322C67.5529 49.711 67.212 50.1883 67.0454 50.764L62.5681 50.4004C62.7954 49.3398 63.2423 48.4231 63.909 47.6504C64.5757 46.8701 65.4355 46.2716 66.4885 45.8549C67.5492 45.4307 68.7764 45.2186 70.1704 45.2186C71.1401 45.2186 72.0681 45.3322 72.9545 45.5595C73.8484 45.7868 74.6401 46.139 75.3295 46.6163C76.0264 47.0936 76.5757 47.7072 76.9772 48.4572C77.3787 49.1996 77.5795 50.0898 77.5795 51.1277V62.9004H72.9885V60.4799H72.8522C72.5719 61.0254 72.1969 61.5065 71.7272 61.9231C71.2575 62.3322 70.6931 62.6542 70.034 62.889C69.3749 63.1163 68.6135 63.2299 67.7499 63.2299ZM69.1363 59.889C69.8484 59.889 70.4772 59.7489 71.0226 59.4686C71.5681 59.1807 71.9961 58.7943 72.3067 58.3095C72.6173 57.8246 72.7726 57.2754 72.7726 56.6618V54.8095C72.6211 54.908 72.4128 54.9989 72.1476 55.0822C71.8901 55.158 71.5984 55.2299 71.2726 55.2981C70.9469 55.3587 70.6211 55.4155 70.2954 55.4686C69.9696 55.514 69.6742 55.5557 69.409 55.5936C68.8408 55.6769 68.3446 55.8095 67.9204 55.9913C67.4961 56.1731 67.1666 56.4193 66.9317 56.7299C66.6969 57.033 66.5795 57.4118 66.5795 57.8663C66.5795 58.5254 66.8181 59.0292 67.2954 59.3777C67.7802 59.7186 68.3939 59.889 69.1363 59.889Z" fill="#E6E6E6"/>
<rect x="36.9033" y="85.9004" width="111" height="20" rx="4" fill="#FEFEFE"/>
<rect x="51.9033" y="91.9004" width="83" height="8" rx="4" fill="#D8D8D8"/>
<rect x="35.8999" y="140.9" width="77" height="8" rx="4" fill="#D4D4D8"/>
<rect x="35.8999" y="152.9" width="175" height="20" rx="4" fill="#F4F4F5"/>
</g>
<defs>
<filter id="filter0_d_5828_9511" x="-9.72748e-05" y="0.000391006" width="246.8" height="197.8" filterUnits="userSpaceOnUse" color-interpolation-filters="sRGB">
<feFlood flood-opacity="0" result="BackgroundImageFix"/>
<feColorMatrix in="SourceAlpha" type="matrix" values="0 0 0 0 0 0 0 0 0 0 0 0 0 0 0 0 0 0 127 0" result="hardAlpha"/>
<feOffset/>
<feGaussianBlur stdDeviation="9.45"/>
<feComposite in2="hardAlpha" operator="out"/>
<feColorMatrix type="matrix" values="0 0 0 0 0 0 0 0 0 0 0 0 0 0 0 0 0 0 0.15 0"/>
<feBlend mode="normal" in2="BackgroundImageFix" result="effect1_dropShadow_5828_9511"/>
<feBlend mode="normal" in="SourceGraphic" in2="effect1_dropShadow_5828_9511" result="shape"/>
</filter>
</defs>
</svg>
