<!-- <svg width="247" height="220" viewBox="0 0 247 220" fill="none" xmlns="http://www.w3.org/2000/svg"> -->
<svg width="207" height="180" viewBox="28 10 190 190" fill="none" xmlns="http://www.w3.org/2000/svg">

<path d="M19 31C19 24.3726 24.3726 19 31 19H216C222.627 19 228 24.3726 228 31V201H19V31Z" fill="#1E50EF" shape-rendering="crispEdges"/>
<path d="M31 19.5H216C222.351 19.5 227.5 24.6487 227.5 31V200.5H19.5V31C19.5 24.6487 24.6487 19.5 31 19.5Z" stroke="#D4D4D8" shape-rendering="crispEdges"/>
<path d="M43.0341 63H37.7614L45.7955 39.7273H52.1364L60.1591 63H54.8864L49.0568 45.0455H48.875L43.0341 63ZM42.7045 53.8523H55.1591V57.6932H42.7045V53.8523ZM67.8466 63.3295C66.733 63.3295 65.7405 63.1364 64.8693 62.75C63.9981 62.3561 63.3087 61.7765 62.8011 61.0114C62.3011 60.2386 62.0511 59.2765 62.0511 58.125C62.0511 57.1553 62.2292 56.3409 62.5852 55.6818C62.9413 55.0227 63.4261 54.4924 64.0398 54.0909C64.6534 53.6894 65.3504 53.3864 66.1307 53.1818C66.9186 52.9773 67.7443 52.8333 68.608 52.75C69.6231 52.6439 70.4413 52.5455 71.0625 52.4545C71.6837 52.3561 72.1345 52.2121 72.4148 52.0227C72.6951 51.8333 72.8352 51.553 72.8352 51.1818V51.1136C72.8352 50.3939 72.608 49.8371 72.1534 49.4432C71.7064 49.0492 71.0701 48.8523 70.2443 48.8523C69.3731 48.8523 68.6799 49.0455 68.1648 49.4318C67.6496 49.8106 67.3087 50.2879 67.142 50.8636L62.6648 50.5C62.892 49.4394 63.339 48.5227 64.0057 47.75C64.6723 46.9697 65.5322 46.3712 66.5852 45.9545C67.6458 45.5303 68.8731 45.3182 70.267 45.3182C71.2367 45.3182 72.1648 45.4318 73.0511 45.6591C73.9451 45.8864 74.7367 46.2386 75.4261 46.7159C76.1231 47.1932 76.6723 47.8068 77.0739 48.5568C77.4754 49.2992 77.6761 50.1894 77.6761 51.2273V63H73.0852V60.5795H72.9489C72.6686 61.125 72.2936 61.6061 71.8239 62.0227C71.3542 62.4318 70.7898 62.7538 70.1307 62.9886C69.4716 63.2159 68.7102 63.3295 67.8466 63.3295ZM69.233 59.9886C69.9451 59.9886 70.5739 59.8485 71.1193 59.5682C71.6648 59.2803 72.0928 58.8939 72.4034 58.4091C72.714 57.9242 72.8693 57.375 72.8693 56.7614V54.9091C72.7178 55.0076 72.5095 55.0985 72.2443 55.1818C71.9867 55.2576 71.6951 55.3295 71.3693 55.3977C71.0436 55.4583 70.7178 55.5152 70.392 55.5682C70.0663 55.6136 69.7708 55.6553 69.5057 55.6932C68.9375 55.7765 68.4413 55.9091 68.017 56.0909C67.5928 56.2727 67.2633 56.5189 67.0284 56.8295C66.7936 57.1326 66.6761 57.5114 66.6761 57.9659C66.6761 58.625 66.9148 59.1288 67.392 59.4773C67.8769 59.8182 68.4905 59.9886 69.233 59.9886Z" fill="#E6E6E6"/>
<rect x="37" y="84" width="111" height="20" rx="4" fill="#FEFEFE"/>
<rect x="52" y="90" width="83" height="8" rx="4" fill="#D8D8D8"/>
<rect x="37" y="135.5" width="77" height="8" rx="4" fill="#D4D4D8" fill-opacity="0.8"/>
<rect x="37" y="147.5" width="173" height="20" rx="4" fill="#E1E1E1" fill-opacity="0.54"/>

<defs>
<filter id="filter0_d_5217_11638" x="0.1" y="0.1" width="246.8" height="219.8" filterUnits="userSpaceOnUse" color-interpolation-filters="sRGB">
<feFlood flood-opacity="0" result="BackgroundImageFix"/>
<feColorMatrix in="SourceAlpha" type="matrix" values="0 0 0 0 0 0 0 0 0 0 0 0 0 0 0 0 0 0 127 0" result="hardAlpha"/>
<feOffset/>
<feGaussianBlur stdDeviation="9.45"/>
<feComposite in2="hardAlpha" operator="out"/>
<feColorMatrix type="matrix" values="0 0 0 0 0 0 0 0 0 0 0 0 0 0 0 0 0 0 0.15 0"/>
<feBlend mode="normal" in2="BackgroundImageFix" result="effect1_dropShadow_5217_11638"/>
<feBlend mode="normal" in="SourceGraphic" in2="effect1_dropShadow_5217_11638" result="shape"/>
</filter>
</defs>
</svg>
