<svg width="249" height="168" viewBox="0 0 258 174" fill="none" xmlns="http://www.w3.org/2000/svg">
<g filter="url(#filter0_d_5828_9506)">
<path d="M18.8999 30.9004C18.8999 24.273 24.2725 18.9004 30.8999 18.9004H259.9V178.9H18.8999V30.9004Z" fill="white" shape-rendering="crispEdges"/>
<path d="M30.8999 19.4004H259.4V178.4H19.3999V30.9004C19.3999 24.5491 24.5486 19.4004 30.8999 19.4004Z" stroke="#D4D4D8" shape-rendering="crispEdges"/>
<path d="M50.4425 71.9004H43.8516L53.8942 42.8095H61.8204L71.8488 71.9004H65.2579L57.9709 49.4572H57.7437L50.4425 71.9004ZM50.0306 60.4657H65.5988V65.2669H50.0306V60.4657ZM81.4581 72.3123C80.0661 72.3123 78.8256 72.0708 77.7366 71.5879C76.6475 71.0955 75.7858 70.371 75.1513 69.4146C74.5263 68.4487 74.2138 67.246 74.2138 65.8066C74.2138 64.5945 74.4364 63.5765 74.8814 62.7527C75.3265 61.9288 75.9326 61.2659 76.6996 60.764C77.4667 60.2621 78.3379 59.8833 79.3133 59.6277C80.2981 59.372 81.3303 59.1921 82.4098 59.0879C83.6788 58.9553 84.7015 58.8322 85.478 58.7186C86.2545 58.5955 86.818 58.4155 87.1684 58.1788C87.5187 57.9421 87.6939 57.5917 87.6939 57.1277V57.0424C87.6939 56.1428 87.4098 55.4468 86.8417 54.9544C86.283 54.4619 85.4875 54.2157 84.4553 54.2157C83.3663 54.2157 82.4998 54.4572 81.8559 54.9402C81.2119 55.4136 80.7858 56.0102 80.5775 56.7299L74.9809 56.2754C75.265 54.9496 75.8237 53.8038 76.657 52.8379C77.4903 51.8625 78.5651 51.1144 79.8814 50.5936C81.2072 50.0633 82.7413 49.7981 84.4837 49.7981C85.6958 49.7981 86.8559 49.9402 87.9638 50.2243C89.0812 50.5083 90.0708 50.9487 90.9326 51.5453C91.8038 52.1419 92.4903 52.9089 92.9922 53.8464C93.4941 54.7744 93.7451 55.8871 93.7451 57.1845V71.9004H88.0064V68.8748H87.836C87.4856 69.5566 87.0169 70.158 86.4297 70.6788C85.8426 71.1902 85.1371 71.5926 84.3133 71.8862C83.4894 72.1703 82.5377 72.3123 81.4581 72.3123ZM83.1911 68.1362C84.0812 68.1362 84.8672 67.961 85.549 67.6106C86.2309 67.2508 86.7659 66.7678 87.1542 66.1618C87.5424 65.5557 87.7366 64.8691 87.7366 64.1021V61.7868C87.5472 61.9099 87.2867 62.0235 86.9553 62.1277C86.6333 62.2224 86.2687 62.3123 85.8616 62.3975C85.4544 62.4733 85.0472 62.5443 84.64 62.6106C84.2328 62.6674 83.8634 62.7195 83.532 62.7669C82.8218 62.871 82.2015 63.0368 81.6712 63.264C81.1409 63.4913 80.729 63.7991 80.4354 64.1873C80.1419 64.5661 79.9951 65.0396 79.9951 65.6078C79.9951 66.4316 80.2934 67.0614 80.89 67.497C81.496 67.9231 82.2631 68.1362 83.1911 68.1362Z" fill="black"/>
<rect x="42.8999" y="89.9004" width="103" height="20" rx="4" fill="#F4F4F5"/>
<rect x="54.8999" y="95.9004" width="77" height="8" rx="4" fill="#D4D4D8"/>
</g>
<defs>
<filter id="filter0_d_5828_9506" x="-9.72748e-05" y="0.000391006" width="278.8" height="197.8" filterUnits="userSpaceOnUse" color-interpolation-filters="sRGB">
<feFlood flood-opacity="0" result="BackgroundImageFix"/>
<feColorMatrix in="SourceAlpha" type="matrix" values="0 0 0 0 0 0 0 0 0 0 0 0 0 0 0 0 0 0 127 0" result="hardAlpha"/>
<feOffset/>
<feGaussianBlur stdDeviation="9.45"/>
<feComposite in2="hardAlpha" operator="out"/>
<feColorMatrix type="matrix" values="0 0 0 0 0 0 0 0 0 0 0 0 0 0 0 0 0 0 0.15 0"/>
<feBlend mode="normal" in2="BackgroundImageFix" result="effect1_dropShadow_5828_9506"/>
<feBlend mode="normal" in="SourceGraphic" in2="effect1_dropShadow_5828_9506" result="shape"/>
</filter>
</defs>
</svg>
