<svg width="210" height="180" viewBox="0 0 230 200" fill="none" xmlns="http://www.w3.org/2000/svg">
<g filter="url(#filter0_d_5217_11493)">
<path d="M19 31C19 24.3726 24.3726 19 31 19H260V201H19V31Z" fill="white" shape-rendering="crispEdges"/>
<path d="M31 19.5H259.5V200.5H19.5V31C19.5 24.6487 24.6487 19.5 31 19.5Z" stroke="#D4D4D8" shape-rendering="crispEdges"/>
<path d="M50.5426 72H43.9517L53.9943 42.9091H61.9205L71.9489 72H65.358L58.071 49.5568H57.8438L50.5426 72ZM50.1307 60.5653H65.6989V65.3665H50.1307V60.5653ZM81.5582 72.4119C80.1662 72.4119 78.9257 72.1705 77.8366 71.6875C76.7476 71.1951 75.8859 70.4706 75.2514 69.5142C74.6264 68.5483 74.3139 67.3456 74.3139 65.9062C74.3139 64.6941 74.5365 63.6761 74.9815 62.8523C75.4266 62.0284 76.0327 61.3655 76.7997 60.8636C77.5668 60.3617 78.438 59.983 79.4134 59.7273C80.3982 59.4716 81.4304 59.2917 82.5099 59.1875C83.7789 59.0549 84.8016 58.9318 85.5781 58.8182C86.3546 58.6951 86.9181 58.5152 87.2685 58.2784C87.6188 58.0417 87.794 57.6913 87.794 57.2273V57.142C87.794 56.2424 87.5099 55.5464 86.9418 55.054C86.383 54.5616 85.5876 54.3153 84.5554 54.3153C83.4664 54.3153 82.5999 54.5568 81.956 55.0398C81.312 55.5133 80.8859 56.1098 80.6776 56.8295L75.081 56.375C75.3651 55.0492 75.9238 53.9034 76.7571 52.9375C77.5904 51.9621 78.6652 51.214 79.9815 50.6932C81.3073 50.1629 82.8414 49.8977 84.5838 49.8977C85.7959 49.8977 86.956 50.0398 88.0639 50.3239C89.1813 50.608 90.1709 51.0483 91.0327 51.6449C91.9039 52.2415 92.5904 53.0085 93.0923 53.946C93.5942 54.8741 93.8452 55.9867 93.8452 57.2841V72H88.1065V68.9744H87.9361C87.5857 69.6562 87.117 70.2576 86.5298 70.7784C85.9427 71.2898 85.2372 71.6922 84.4134 71.9858C83.5895 72.2699 82.6378 72.4119 81.5582 72.4119ZM83.2912 68.2358C84.1813 68.2358 84.9673 68.0606 85.6491 67.7102C86.331 67.3504 86.866 66.8674 87.2543 66.2614C87.6425 65.6553 87.8366 64.9687 87.8366 64.2017V61.8864C87.6473 62.0095 87.3868 62.1231 87.0554 62.2273C86.7334 62.322 86.3688 62.4119 85.9616 62.4972C85.5545 62.5729 85.1473 62.6439 84.7401 62.7102C84.3329 62.767 83.9635 62.8191 83.6321 62.8665C82.9219 62.9706 82.3016 63.1364 81.7713 63.3636C81.241 63.5909 80.8291 63.8987 80.5355 64.2869C80.242 64.6657 80.0952 65.1392 80.0952 65.7074C80.0952 66.5312 80.3935 67.161 80.9901 67.5966C81.5961 68.0227 82.3632 68.2358 83.2912 68.2358Z" fill="black"/>
<rect x="43" y="90" width="103" height="20" rx="4" fill="#F4F4F5"/>
<rect x="55" y="96" width="77" height="8" rx="4" fill="#D4D4D8"/>
</g>
<defs>
<filter id="filter0_d_5217_11493" x="0.1" y="0.1" width="278.8" height="219.8" filterUnits="userSpaceOnUse" color-interpolation-filters="sRGB">
<feFlood flood-opacity="0" result="BackgroundImageFix"/>
<feColorMatrix in="SourceAlpha" type="matrix" values="0 0 0 0 0 0 0 0 0 0 0 0 0 0 0 0 0 0 127 0" result="hardAlpha"/>
<feOffset/>
<feGaussianBlur stdDeviation="9.45"/>
<feComposite in2="hardAlpha" operator="out"/>
<feColorMatrix type="matrix" values="0 0 0 0 0 0 0 0 0 0 0 0 0 0 0 0 0 0 0.15 0"/>
<feBlend mode="normal" in2="BackgroundImageFix" result="effect1_dropShadow_5217_11493"/>
<feBlend mode="normal" in="SourceGraphic" in2="effect1_dropShadow_5217_11493" result="shape"/>
</filter>
</defs>
</svg>
