<svg viewBox="0 0 52 48" fill="none" xmlns="http://www.w3.org/2000/svg">
<path d="M39.0105 38.9883C38.9936 39.0767 38.9873 39.1679 38.9889 39.2575C38.9924 39.4667 39.0314 39.6743 39.037 39.8835C39.0494 40.3479 38.7571 40.7017 38.8986 41.1839C38.9633 41.4042 39.206 41.819 39.477 41.8131C39.7467 41.8072 39.9131 41.5207 39.9908 41.3079C40.1087 40.985 40.2217 40.69 40.3888 40.3849C40.4695 40.2375 40.5481 40.0859 40.6119 39.9302C40.028 39.6767 39.5065 39.377 39.1346 39.093C39.0905 39.0593 39.0494 39.0243 39.0105 38.9883Z" fill="#1F2A50"/>
<path d="M45.0383 39.5659C45.1039 39.6347 45.1677 39.7052 45.2345 39.7727C45.4251 39.9653 45.6698 40.1685 45.9379 40.1147C46.1601 40.0701 46.3118 39.8501 46.3359 39.6295C46.3599 39.4088 46.2814 39.1899 46.1841 38.9893C45.9481 38.5015 45.599 38.0773 45.2133 37.6953C45.2244 37.8019 45.2351 37.9088 45.2431 38.0161C45.2818 38.5301 45.2421 39.1023 45.0383 39.5659Z" fill="#1F2A50"/>
<path d="M45.3229 41.0405C45.2464 40.6174 45.0896 40.2149 44.8931 39.832C44.7649 40.0247 44.598 40.187 44.3806 40.2996C44.1676 40.41 43.927 40.4797 43.6687 40.5167C43.8317 40.8674 44.0062 41.2131 44.1958 41.5509C44.3274 41.7859 44.5088 42.045 44.7819 42.0624C45.0083 42.0767 45.2139 41.9037 45.2967 41.6972C45.3794 41.4905 45.3626 41.2591 45.3229 41.0405Z" fill="#1F2A50"/>
<path d="M41.9863 40.3926C41.9938 40.4274 42.0015 40.4621 42.0096 40.4967C42.1051 40.9152 42.2186 41.3298 42.3496 41.7391C42.4315 41.9948 42.5569 42.2838 42.8213 42.3536C43.0402 42.4113 43.2769 42.2814 43.3995 42.0948C43.5222 41.9082 43.5524 41.678 43.5576 41.4561C43.565 41.147 43.5286 40.8404 43.4652 40.5386C43.0043 40.5734 42.496 40.5134 41.9863 40.3926Z" fill="#1F2A50"/>
<path d="M38.2569 27.9009C38.3215 28.4091 38.3076 28.9269 38.211 29.4303C38.1182 29.9142 38.0005 30.4026 38.016 30.8982C38.0431 31.7672 38.535 32.7318 38.8943 33.5145C38.9889 33.7207 39.0879 33.9267 39.1918 34.1317C39.9487 35.6237 40.9643 37.054 42.3959 37.9719C42.7568 38.2026 43.1565 38.4036 43.5871 38.4238C44.042 38.4452 44.4869 38.2595 44.8522 37.9933C44.9426 37.9273 45.0668 37.7878 45.2073 37.6312C44.7482 33.4292 41.9799 29.6407 38.5683 27.1536C38.4785 27.0881 38.3766 27.0151 38.2673 26.9414C38.3344 27.2466 38.3173 27.5781 38.2569 27.9009Z" fill="#EBF2E5"/>
<path d="M44.8931 39.8313C44.9489 39.7478 44.9971 39.6587 45.0385 39.5646C45.2423 39.101 45.2819 38.5287 45.2433 38.0147C45.2353 37.9075 45.2245 37.8006 45.2134 37.694C45.2113 37.6728 45.2098 37.6517 45.2074 37.6306C45.0668 37.7872 44.9426 37.9268 44.8522 37.9927C44.4869 38.259 44.0421 38.4447 43.5871 38.4233C43.1566 38.4031 42.7568 38.2021 42.396 37.9714C40.9643 37.0535 39.9487 35.6232 39.1919 34.1312C39.088 33.9262 38.989 33.7202 38.8943 33.514C38.535 32.7313 38.0431 31.7667 38.0161 30.8977C38.0006 30.402 38.1183 29.9137 38.211 29.4298C38.3076 28.9264 38.3216 28.4086 38.257 27.9004C38.2545 27.914 38.2521 27.9279 38.2493 27.9415C38.222 28.079 38.1872 28.2148 38.1476 28.3459C38.1292 28.4069 38.1092 28.4674 38.0892 28.5281C38.101 28.6189 38.1029 28.7107 38.0945 28.7994C38.0587 29.1779 37.8827 29.5273 37.7526 29.8853C37.5357 30.4817 37.4715 31.0881 37.4922 31.6966C37.521 32.5419 37.7134 33.3916 37.8872 34.2241C38.3979 36.6701 39.7844 38.9636 41.9076 40.3734C41.9338 40.38 41.9601 40.3865 41.9863 40.3927C42.496 40.5135 43.0043 40.5736 43.4652 40.5387C43.5343 40.5334 43.6019 40.5256 43.6687 40.516C43.927 40.4789 44.1677 40.4093 44.3806 40.2989C44.5979 40.1863 44.7649 40.024 44.8931 39.8313Z" fill="#C6CAD6"/>
<path d="M37.8872 34.2253C37.7134 33.3928 37.521 32.5431 37.4922 31.6978C37.4715 31.0892 37.5357 30.4829 37.7525 29.8865C37.8827 29.5285 38.0587 29.179 38.0944 28.8006C38.1029 28.7119 38.1009 28.6201 38.0891 28.5293C37.7368 29.593 37.137 30.5772 36.3491 31.3867C36.2657 31.76 36.1706 32.1312 36.0662 32.5004C36.468 33.1714 36.8359 33.8618 37.1682 34.5682C37.1797 34.5931 37.1914 34.6178 37.203 34.6426C37.5731 35.437 37.8982 36.2515 38.176 37.081C38.4072 37.7713 38.4684 38.4877 39.0105 38.9892C39.0495 39.0252 39.0905 39.0602 39.1346 39.0939C39.5065 39.3778 40.028 39.6776 40.6119 39.931C41.0228 40.1094 41.4646 40.2642 41.9075 40.3746C39.7844 38.9648 38.3979 36.6713 37.8872 34.2253Z" fill="#A1A8C3"/>
<path d="M36.8006 25.8441C37.0129 26.3709 37.1353 26.9324 37.1614 27.4981C37.1669 27.6212 37.1695 27.7502 37.2311 27.858C37.2817 27.9466 37.3858 27.9962 37.5092 28.0202C37.7336 28.0635 38.0221 28.022 38.1713 27.9758C38.1976 27.9676 38.2234 27.9561 38.2493 27.9433C38.2521 27.9296 38.2544 27.9158 38.2569 27.9022C38.3174 27.5793 38.3345 27.2479 38.2674 26.9426C38.2212 26.7336 38.1363 26.5365 37.9987 26.3635C37.7178 26.0106 37.2543 25.8325 36.7944 25.838C36.7948 25.8433 36.7952 25.8487 36.7954 25.8539C36.7972 25.8507 36.7989 25.8474 36.8006 25.8441Z" fill="#203A73"/>
<path d="M37.5093 28.0198C37.3859 27.9959 37.2817 27.9462 37.2312 27.8576C37.1696 27.7499 37.167 27.6209 37.1614 27.4978C37.1354 26.932 37.013 26.3705 36.8007 25.8438C36.799 25.847 36.7973 25.8503 36.7954 25.8535C36.8042 25.998 36.8126 26.1423 36.818 26.2869C36.8395 26.8579 36.8356 27.4297 36.8073 28.0006C36.7836 28.4788 36.7444 28.9563 36.6862 29.4321C36.6063 30.0875 36.4933 30.74 36.3491 31.3869C37.1371 30.5774 37.7369 29.5932 38.0892 28.5295C38.1092 28.4688 38.1293 28.4083 38.1477 28.3473C38.1873 28.2162 38.222 28.0804 38.2494 27.9429C38.2234 27.9557 38.1976 27.9672 38.1714 27.9754C38.0222 28.0216 37.7337 28.0631 37.5093 28.0198Z" fill="#1F2A50"/>
<path d="M12.8478 39.093C12.4759 39.377 11.9544 39.6767 11.3706 39.9302C11.4343 40.0859 11.513 40.2375 11.5936 40.3849C11.7607 40.69 11.8736 40.985 11.9916 41.3079C12.0693 41.5207 12.2356 41.8072 12.5055 41.8131C12.7765 41.819 13.0191 41.4042 13.0837 41.1839C13.2251 40.7017 12.9331 40.3479 12.9454 39.8835C12.9511 39.6743 12.9899 39.4667 12.9936 39.2575C12.9951 39.1679 12.9887 39.0767 12.9719 38.9883C12.9329 39.0244 12.8919 39.0594 12.8478 39.093Z" fill="#1F2A50"/>
<path d="M6.73916 38.0161C6.74725 37.9088 6.75803 37.8019 6.7691 37.6953C6.3834 38.0773 6.03432 38.5014 5.79819 38.9893C5.70104 39.1899 5.62239 39.4089 5.64647 39.6295C5.67046 39.8501 5.82227 40.0701 6.04436 40.1147C6.31264 40.1685 6.55734 39.9653 6.74782 39.7727C6.81467 39.7052 6.87843 39.6347 6.94397 39.5659C6.74018 39.1023 6.70058 38.5301 6.73916 38.0161Z" fill="#1F2A50"/>
<path d="M7.08928 39.832C6.89304 40.2149 6.73611 40.6174 6.6595 41.0405C6.6199 41.2591 6.60308 41.4905 6.6858 41.6972C6.76845 41.9037 6.97417 42.0768 7.20044 42.0624C7.47365 42.045 7.65495 41.7859 7.78677 41.5509C7.97623 41.2131 8.15082 40.8674 8.31386 40.5167C8.05543 40.4797 7.81473 40.41 7.60186 40.2997C7.38443 40.187 7.21756 40.0247 7.08928 39.832Z" fill="#1F2A50"/>
<path d="M8.51716 40.5386C8.45376 40.8404 8.41749 41.147 8.42475 41.4561C8.43005 41.678 8.46016 41.9082 8.58286 42.0948C8.70557 42.2814 8.94218 42.4114 9.161 42.3536C9.42538 42.2838 9.5509 41.9948 9.63269 41.7391C9.76378 41.3298 9.87727 40.9152 9.97294 40.4967C9.98084 40.4621 9.98846 40.4274 9.9961 40.3926C9.48647 40.5134 8.97816 40.5734 8.51716 40.5386Z" fill="#1F2A50"/>
<path d="M7.20267 37.9964C7.56793 38.2627 8.01285 38.4484 8.46781 38.427C8.89832 38.4068 9.29816 38.2058 9.65895 37.975C11.0905 37.0571 12.1061 35.627 12.863 34.135C12.967 33.93 13.0661 33.724 13.1606 33.5178C13.5199 32.7351 14.0117 31.7705 14.0388 30.9014C14.0543 30.4057 13.9367 29.9174 13.8438 29.4336C13.7615 29.0045 13.7404 28.5651 13.7754 28.13C13.6775 27.7378 13.632 27.3195 13.715 26.9414C13.6056 27.0151 13.5038 27.0882 13.414 27.1536C10.0209 29.6273 7.26452 33.3882 6.78296 37.5629C6.9501 37.7475 7.09884 37.9207 7.20267 37.9964Z" fill="#EBF2E5"/>
<path d="M14.1677 34.2288C14.3416 33.3961 14.534 32.5466 14.5628 31.7011C14.5834 31.0927 14.5192 30.4863 14.3024 29.8899C14.1721 29.5319 13.9962 29.1822 13.9604 28.804C13.9574 28.7721 13.9557 28.74 13.9551 28.7078C13.9122 28.5885 13.8714 28.4686 13.8347 28.3473C13.8153 28.2831 13.7975 28.2176 13.7807 28.1515C13.7789 28.1447 13.7771 28.1379 13.7753 28.1309C13.7404 28.566 13.7615 29.0054 13.8438 29.4345C13.9366 29.9182 14.0543 30.4066 14.0388 30.9022C14.0116 31.7713 13.5199 32.7359 13.1606 33.5187C13.066 33.7249 12.9669 33.9309 12.863 34.1359C12.1061 35.6279 11.0905 37.058 9.65893 37.9758C9.29814 38.2066 8.8983 38.4077 8.46778 38.4279C8.01282 38.4493 7.56788 38.2636 7.20265 37.9972C7.09881 37.9215 6.95007 37.7483 6.78291 37.5638C6.77779 37.6076 6.77351 37.6514 6.76896 37.6954C6.7579 37.802 6.74712 37.9089 6.73902 38.0161C6.70045 38.5301 6.74005 39.1024 6.94381 39.566C6.98517 39.6601 7.03353 39.7492 7.0892 39.8327C7.2175 40.0254 7.38435 40.1877 7.6018 40.3003C7.81467 40.4107 8.05537 40.4804 8.3138 40.5174C8.38046 40.5269 8.44805 40.5349 8.51712 40.5402C8.97812 40.575 9.48643 40.515 9.99608 40.3941C10.0642 40.3778 10.1323 40.3606 10.2003 40.3424C12.2935 38.9296 13.6614 36.6542 14.1677 34.2288Z" fill="#C6CAD6"/>
<path d="M13.9552 28.707C13.9558 28.7392 13.9575 28.7714 13.9605 28.8032C13.9963 29.1815 14.1722 29.5311 14.3025 29.8891C14.5193 30.4855 14.5835 31.0919 14.5628 31.7003C14.5341 32.5458 14.3417 33.3954 14.1678 34.2281C13.6615 36.6535 12.2936 38.9288 10.2004 40.3416C10.601 40.2341 10.9984 40.0919 11.3706 39.9305C11.9544 39.677 12.4759 39.3773 12.8478 39.0933C12.8919 39.0597 12.9329 39.0247 12.9719 38.9886C13.514 38.4872 13.5754 37.7707 13.8064 37.0805C14.0841 36.251 14.4093 35.4365 14.7794 34.6421C14.791 34.6173 14.8027 34.5925 14.8143 34.5677C15.1257 33.9054 15.4703 33.2581 15.843 32.6268C15.7099 32.1675 15.5946 31.7042 15.4944 31.2383C14.8178 30.5045 14.2911 29.639 13.9552 28.707Z" fill="#A1A8C3"/>
<path d="M13.7755 28.131C13.7772 28.138 13.779 28.1449 13.7808 28.1517C13.8276 28.1698 13.8795 28.1779 13.93 28.1753C14.0826 28.1671 14.2959 28.0884 14.4527 27.9769C14.527 27.9242 14.5885 27.8639 14.625 27.8005C14.6766 27.7106 14.6888 27.605 14.7029 27.503C14.7648 27.0562 14.8854 26.6175 15.0589 26.1997C15.0639 26.0797 15.0726 25.9598 15.0799 25.8398C14.6567 25.8614 14.2426 26.0381 13.9838 26.3633C13.8461 26.5364 13.7611 26.7332 13.7151 26.9425C13.6321 27.3205 13.6776 27.7388 13.7755 28.131Z" fill="#203A73"/>
<path d="M15.0546 26.362C15.0564 26.3078 15.0566 26.2534 15.0589 26.1992C14.8854 26.617 14.7648 27.0557 14.7029 27.5024C14.6888 27.6045 14.6766 27.71 14.625 27.8C14.5885 27.8634 14.527 27.9237 14.4527 27.9764C14.2959 28.0878 14.0826 28.1665 13.93 28.1747C13.8795 28.1774 13.8276 28.1693 13.7808 28.1512C13.7976 28.2172 13.8154 28.2828 13.8348 28.3469C13.8715 28.4682 13.9123 28.5882 13.9553 28.7075C14.2911 29.6394 14.8179 30.505 15.4945 31.2387C15.4196 30.8914 15.354 30.5428 15.2977 30.1927C15.2568 29.9396 15.2194 29.6859 15.1883 29.4317C15.0639 28.4129 15.0199 27.3865 15.0546 26.362Z" fill="#1F2A50"/>
<path d="M20.0688 39.7661C20.1199 39.8611 20.1728 39.9551 20.2297 40.0472C21.5167 41.2516 23.1501 42.0986 24.8926 42.4602C25.9508 42.6799 27.0464 42.7202 28.1189 42.5859C28.7825 42.4062 29.4155 42.1321 29.9896 41.754C30.7484 41.2547 31.3814 40.5583 31.8069 39.7656C29.1767 40.7251 22.7002 40.7251 20.0688 39.7661Z" fill="#1F2A50"/>
<path d="M36.8181 26.2871C35.4487 26.8903 34.0044 27.3432 32.5292 27.6547C31.5788 27.8552 30.6149 27.9986 29.6453 28.0874C27.3729 28.2952 25.0497 28.183 22.7849 27.9262C20.097 27.6214 17.5248 27.259 15.0547 26.3625C15.02 27.387 15.064 28.4135 15.1883 29.4323C15.2194 29.6865 15.2569 29.9401 15.2977 30.1933C16.3616 31.0118 17.4506 31.7994 18.635 32.4365C21.7242 34.0981 25.9643 34.8636 29.4408 33.9864C29.4846 33.9753 29.5284 33.9641 29.572 33.9524C31.1836 33.5241 32.9351 31.8851 34.1425 30.8112C35.1099 29.9506 36.0015 29.0086 36.8074 28.0008C36.8356 27.4299 36.8395 26.8582 36.8181 26.2871Z" fill="#EBF2E5"/>
<path d="M23.7607 38.881C21.7995 38.6874 19.8615 38.2513 18.0142 37.5781C18.3368 38.1124 18.6831 38.6352 19.0559 39.143C19.2322 39.3832 19.5865 39.5909 20.0687 39.7668C22.7001 40.7259 29.1766 40.7258 31.8068 39.7663C32.2885 39.5906 32.6423 39.383 32.8186 39.143C33.1625 38.6746 33.4828 38.1929 33.7839 37.7019C33.4906 37.8034 33.1957 37.9012 32.8981 37.9908C29.9521 38.8787 26.8276 39.1839 23.7607 38.881Z" fill="#C6CAD6"/>
<path d="M36.6862 29.4315C36.7444 28.9557 36.7836 28.4783 36.8073 28C36.0015 29.0077 35.1099 29.9498 34.1424 30.8104C32.935 31.8843 31.1836 33.5233 29.572 33.9516C29.5284 33.9632 29.4846 33.9745 29.4408 33.9856C25.9642 34.8628 21.7242 34.0973 18.635 32.4357C17.4505 31.7986 16.3616 31.011 15.2976 30.1925C15.3539 30.5426 15.4196 30.8912 15.4944 31.2385C15.5946 31.7044 15.7099 32.1677 15.843 32.627C16.3257 34.2927 17.023 35.9085 17.9235 37.4284C18.5544 37.6625 19.1957 37.8699 19.8459 38.0479C22.7872 38.853 25.8855 39.0816 28.9166 38.7139C30.6045 38.5092 32.272 38.1226 33.873 37.5572C34.8341 35.9615 35.5689 34.2577 36.0662 32.5C36.1706 32.1308 36.2657 31.7597 36.3491 31.3863C36.4933 30.7394 36.6062 30.0869 36.6862 29.4315Z" fill="#C6CAD6"/>
<path d="M28.9167 38.7132C25.8856 39.0809 22.7872 38.8523 19.846 38.0472C19.1958 37.8692 18.5544 37.6618 17.9236 37.4277C17.9532 37.4777 17.9841 37.5272 18.0142 37.577C19.8616 38.2502 21.7996 38.6863 23.7608 38.8799C26.8276 39.1828 29.9522 38.8776 32.8981 37.9898C33.1957 37.9 33.4906 37.8023 33.784 37.7008C33.8136 37.6527 33.844 37.6049 33.873 37.5565C32.2721 38.1219 30.6045 38.5085 28.9167 38.7132Z" fill="#203A73"/>
<path d="M15.0547 26.3626C17.5248 27.259 20.097 27.6214 22.785 27.9262C25.0497 28.183 27.3729 28.2952 29.6453 28.0875C30.6149 27.9987 31.5788 27.8553 32.5292 27.6547C34.0044 27.3433 35.4487 26.8903 36.8181 26.2871C36.8126 26.1426 36.8042 25.9982 36.7955 25.8537C36.7953 25.8486 36.7949 25.8432 36.7946 25.8379C36.7866 25.7064 36.7786 25.5748 36.768 25.4434C33.2775 25.7771 18.5971 25.7771 15.1069 25.4434C15.0961 25.5755 15.088 25.7076 15.08 25.8399C15.0726 25.9599 15.064 26.0797 15.059 26.1998C15.0566 26.254 15.0564 26.3084 15.0547 26.3626Z" fill="#A1A8C3"/>
<path d="M10.4738 15.0559C10.5945 14.5404 10.7809 13.6637 10.8174 13.54C10.9978 12.9269 11.2129 12.3227 11.4646 11.7341C11.5086 11.6314 11.5637 11.4854 11.631 11.3296C11.8582 10.5637 12.1316 9.81501 12.4478 9.09338C12.4832 9.01268 12.519 8.93207 12.5552 8.85156C11.9647 8.97702 11.461 9.13348 11.258 9.29952C10.9404 9.55943 10.7301 9.90069 10.5396 10.2412C9.7259 11.6965 9.28217 13.2074 9.16309 14.7278C9.44653 14.9221 9.74253 15.0987 10.0513 15.2515C10.2231 15.3364 10.4308 15.2394 10.4738 15.0559Z" fill="#203A73"/>
<path d="M41.3348 10.2415C41.1444 9.90097 40.9342 9.55973 40.6164 9.2998C40.4133 9.13358 39.9089 8.97702 39.3179 8.85156C39.3548 8.9318 39.3911 9.0124 39.4266 9.09366C39.8994 10.1724 40.2779 11.3114 40.5458 12.4787C40.6611 12.6436 40.7735 12.7609 40.8453 12.9585C41.0218 13.444 41.1701 13.9338 41.3515 14.4157C41.407 14.5631 41.4656 14.7097 41.5291 14.8551C41.9696 14.6746 42.3406 14.4243 42.6447 14.1072C42.4644 12.797 42.0377 11.4985 41.3348 10.2415Z" fill="#203A73"/>
<path d="M42.7456 15.5587C42.745 15.0741 42.711 14.5899 42.6446 14.1071C42.3406 14.4241 41.9695 14.6745 41.5291 14.855C41.4656 14.7095 41.407 14.5629 41.3515 14.4156C41.1701 13.9337 41.0218 13.4439 40.8453 12.9583C40.7734 12.7607 40.6611 12.6435 40.5458 12.4785C40.7719 13.4633 40.9189 14.4683 40.9767 15.4746C41.073 17.156 40.9204 18.8409 40.4696 20.441C40.2819 21.1073 40.0233 21.8219 39.6873 22.5134C40.3165 22.3412 40.8605 22.1378 41.0637 21.9467C41.3623 21.6659 41.548 21.3112 41.7139 20.9586C42.5518 19.1776 42.8705 17.3539 42.7456 15.5587Z" fill="#1F2A50"/>
<path d="M10.8762 16.0013C10.9173 14.4248 11.182 12.8435 11.6309 11.3301C11.5636 11.4859 11.5084 11.6319 11.4645 11.7346C11.2127 12.3232 10.9977 12.9274 10.8173 13.5405C10.7808 13.6642 10.5943 14.541 10.4737 15.0564C10.4307 15.2399 10.223 15.3369 10.0512 15.252C9.74239 15.0993 9.44641 14.9226 9.16297 14.7284C9.14131 15.0051 9.12913 15.282 9.12875 15.5591C9.00371 17.3543 9.32259 19.178 10.1605 20.959C10.3263 21.3116 10.512 21.6663 10.8105 21.9471C11.0138 22.1382 11.5578 22.3415 12.1872 22.5138C11.851 21.8223 11.5924 21.1077 11.4047 20.4414C11.001 19.0083 10.837 17.507 10.8762 16.0013Z" fill="#1F2A50"/>
<path d="M40.5458 12.4782C40.2779 11.3109 39.8995 10.172 39.4266 9.0932C39.3911 9.01197 39.3548 8.93136 39.3179 8.85111C38.8309 7.79005 38.2238 6.81398 37.2454 6.08192C35.5151 4.78762 16.5734 4.82982 14.6291 6.08192C13.5998 6.74486 13.0359 7.78116 12.555 8.85139C12.5189 8.9319 12.4831 9.0125 12.4477 9.0932C12.1315 9.81481 11.8581 10.5635 11.6309 11.3294C11.1821 12.8428 10.9173 14.4241 10.8762 16.0006C11.1789 16.344 11.5092 16.6643 11.8621 16.9579C12.3685 17.3794 12.9883 18.0412 13.6668 17.5827C14.1985 17.2234 14.0939 16.5739 14.1444 16.0187C14.1978 15.4327 14.2581 14.8394 14.3983 14.2662C14.4814 13.926 14.5809 13.5891 14.6957 13.2574C14.9671 11.8874 15.5318 10.5865 16.5245 9.56228C16.7812 9.29745 21.4125 9.20211 25.9372 9.22467C30.4619 9.20211 35.0933 9.29745 35.35 9.56228C36.1871 10.426 36.7193 11.4869 37.0287 12.6196C37.1038 12.7677 37.1748 12.9177 37.2401 13.0702C37.4803 13.6322 37.6324 14.1854 37.7153 14.7863L37.9837 16.7358C38.0299 17.0705 38.3917 17.271 38.7067 17.1331C39.3345 16.8582 39.9222 16.5149 40.4291 16.0587C40.6382 15.8706 40.8186 15.6754 40.9768 15.4743C40.9189 14.468 40.7719 13.463 40.5458 12.4782Z" fill="#EBF2E5"/>
<path d="M40.9768 15.4758C40.8186 15.6769 40.6382 15.8721 40.4291 16.0603C39.9222 16.5164 39.3345 16.8597 38.7067 17.1346C38.3917 17.2725 38.0299 17.072 37.9837 16.7373L37.7153 14.7878C37.6324 14.1869 37.4803 13.6338 37.2401 13.0717C37.1748 12.9192 37.1038 12.7692 37.0287 12.6211C37.234 13.3736 37.3415 14.1576 37.3728 14.9373C37.4529 15.3582 37.5022 15.7882 37.5192 16.2198C37.5865 17.9212 37.0927 21.9171 36.0131 22.4225C34.8019 22.9893 18.0757 22.4469 16.8739 22.3504C15.8753 22.2703 15.5427 21.7521 15.2449 20.8195C14.9884 20.0155 14.8342 19.1618 14.7909 18.3041C14.4755 16.7833 14.3571 14.9677 14.6957 13.2589C14.5809 13.5906 14.4814 13.9275 14.3983 14.2677C14.2581 14.8409 14.1978 15.4342 14.1445 16.0202C14.0939 16.5754 14.1985 17.2249 13.6668 17.5841C12.9884 18.0427 12.3685 17.3809 11.8621 16.9594C11.5092 16.6658 11.1789 16.3455 10.8762 16.0021C10.8371 17.5078 11.0011 19.0091 11.4047 20.4422C11.5924 21.1085 11.851 21.8231 12.1872 22.5145C12.7136 23.5974 13.4316 24.6229 14.3766 25.3124C14.4427 25.3605 14.6982 25.4042 15.1067 25.4432C18.5969 25.777 33.2774 25.777 36.7679 25.4432C37.1762 25.4042 37.4319 25.3605 37.4979 25.3124C38.4429 24.6229 39.1608 23.5974 39.6874 22.5145C40.0234 21.8231 40.2821 21.1085 40.4698 20.4422C40.9205 18.8422 41.073 17.1572 40.9768 15.4758Z" fill="#C6CAD6"/>
<path d="M35.553 21.8041C35.2662 21.9698 30.5484 22.0506 25.9373 22.0466C21.3262 22.0506 16.6083 21.9698 16.3216 21.8041C15.8256 21.5173 15.1679 20.1214 14.791 18.3043C14.8343 19.162 14.9885 20.0156 15.245 20.8197C15.5428 21.7523 15.8754 22.2705 16.874 22.3506C18.0758 22.447 34.802 22.9894 36.0132 22.4227C37.0928 21.9173 37.5866 17.9214 37.5193 16.22C37.5022 15.7884 37.453 15.3583 37.3729 14.9375C37.5042 18.1863 36.3299 21.355 35.553 21.8041Z" fill="#A1A8C3"/>
<path d="M37.3729 14.937C37.3416 14.1573 37.2341 13.3732 37.0287 12.6208C36.7194 11.488 36.1872 10.4272 35.35 9.56346C35.0933 9.29863 30.462 9.20328 25.9373 9.22585C21.4126 9.20328 16.7812 9.29863 16.5245 9.56346C15.5319 10.5877 14.9671 11.8886 14.6958 13.2586C14.3572 14.9674 14.4755 16.783 14.791 18.3038C15.1678 20.1209 15.8255 21.5169 16.3216 21.8036C16.6083 21.9693 21.3262 22.0501 25.9373 22.0461C30.5483 22.0501 35.2661 21.9693 35.5529 21.8036C36.3299 21.3545 37.5042 18.1858 37.3729 14.937Z" fill="#1F2A50"/>
<path d="M16.3226 14.6421C16.1764 15.3604 16.0574 16.1227 16.3137 16.8107C16.725 17.9143 17.9584 18.0072 18.9924 17.9653C19.0329 17.9636 19.0737 17.9614 19.1143 17.9597C18.9494 17.6502 18.8635 17.2937 18.8419 16.9531C18.7883 16.113 18.8819 12.8708 19.3142 12.4109C19.9449 11.7402 21.305 11.7331 21.9422 12.4109C22.3746 12.8709 22.4681 16.113 22.4146 16.9531C22.3971 17.227 22.338 17.5109 22.2299 17.7727C23.8018 17.648 25.376 17.4743 26.9282 17.2317C27.7735 17.0996 28.6149 16.9448 29.4519 16.7699C29.4195 15.7209 29.5269 12.8422 29.9324 12.4109C30.5631 11.7402 31.9231 11.7331 32.5604 12.4109C32.8694 12.7396 33.0052 14.489 33.0382 15.7674C33.4408 15.5757 33.8227 15.3337 34.1808 15.0096C34.9146 14.345 35.5207 13.2656 35.0375 12.2937C34.7636 11.7424 34.2353 11.3435 33.6608 11.0992C33.0864 10.8549 32.4621 10.7485 31.8441 10.6495C27.758 9.99493 23.5522 9.57634 19.4962 10.391C18.991 10.4924 18.4318 10.6042 17.9798 10.859C17.5815 11.0836 17.3799 11.5075 17.1791 11.9076C16.7478 12.7672 16.5128 13.7074 16.3226 14.6421Z" fill="#203A73"/>
<path d="M21.9421 12.41C21.3049 11.7322 19.9448 11.7393 19.3141 12.41C18.8817 12.8698 18.7882 16.1121 18.8418 16.9522C18.8634 17.2928 18.9493 17.6493 19.1141 17.9588C19.245 18.2048 19.4258 18.4213 19.6643 18.5764C20.1818 18.9128 21.0577 18.9236 21.5919 18.5764C21.8892 18.383 22.0967 18.0944 22.2298 17.7718C22.3378 17.5101 22.3969 17.2261 22.4144 16.9522C22.468 16.1121 22.3745 12.87 21.9421 12.41Z" fill="#3EC0F0"/>
<path d="M29.9322 12.41C29.5267 12.8413 29.4193 15.72 29.4517 16.769C29.4539 16.8385 29.4566 16.9001 29.46 16.9522C29.4989 17.5636 29.7439 18.2263 30.2824 18.5763C30.7999 18.9128 31.6758 18.9236 32.2099 18.5763C32.7487 18.2263 32.9936 17.5636 33.0326 16.9522C33.0478 16.7125 33.0512 16.2769 33.038 15.7665C33.005 14.4881 32.8692 12.7387 32.5602 12.41C31.923 11.7322 30.5629 11.7393 29.9322 12.41Z" fill="#3EC0F0"/>
<path d="M24.8925 42.4599C23.1499 42.0983 21.5165 41.2513 20.2295 40.0469C20.6468 40.7226 21.2171 41.3142 21.885 41.7537C23.0686 42.533 24.5029 42.8707 25.937 42.8523C26.6758 42.8617 27.4144 42.7767 28.1188 42.5855C27.0462 42.7199 25.9507 42.6796 24.8925 42.4599Z" fill="#203A73"/>
</svg>
