<svg viewBox="0 0 18 18" fill="none" xmlns="http://www.w3.org/2000/svg">
<mask id="mask0_7899_19310" style="mask-type:luminance" maskUnits="userSpaceOnUse" x="0" y="0" width="18" height="18">
<path d="M16.8189 7.11246H8.70624V10.4711H13.3759C12.9406 12.6049 11.1202 13.8298 8.70624 13.8298C5.85693 13.8298 3.56164 11.538 3.56164 8.69301C3.56164 5.84802 5.85693 3.55623 8.70624 3.55623C9.93303 3.55623 11.0411 3.99089 11.9117 4.70214L14.4444 2.17325C12.9011 0.829787 10.9224 0 8.70624 0C3.87823 0 0 3.87234 0 8.69301C0 13.5137 3.87823 17.386 8.70624 17.386C13.0594 17.386 17.0167 14.2249 17.0167 8.69301C17.0167 8.17933 16.9376 7.62614 16.8189 7.11246Z" fill="white"/>
</mask>
<g mask="url(#mask0_7899_19310)">
<path d="M-0.791016 13.8298V3.55623L5.93653 8.69301L-0.791016 13.8298Z" fill="#FBBC05"/>
</g>
<mask id="mask1_7899_19310" style="mask-type:luminance" maskUnits="userSpaceOnUse" x="0" y="0" width="18" height="18">
<path d="M16.8189 7.11246H8.70624V10.4711H13.3759C12.9406 12.6049 11.1202 13.8298 8.70624 13.8298C5.85693 13.8298 3.56164 11.538 3.56164 8.69301C3.56164 5.84802 5.85693 3.55623 8.70624 3.55623C9.93303 3.55623 11.0411 3.99089 11.9117 4.70214L14.4444 2.17325C12.9011 0.829787 10.9224 0 8.70624 0C3.87823 0 0 3.87234 0 8.69301C0 13.5137 3.87823 17.386 8.70624 17.386C13.0594 17.386 17.0167 14.2249 17.0167 8.69301C17.0167 8.17933 16.9376 7.62614 16.8189 7.11246Z" fill="white"/>
</mask>
<g mask="url(#mask1_7899_19310)">
<path d="M-0.791016 3.55624L5.93653 8.69301L8.7067 6.28269L18.2044 4.74165V-0.790268H-0.791016V3.55624Z" fill="#EA4335"/>
</g>
<mask id="mask2_7899_19310" style="mask-type:luminance" maskUnits="userSpaceOnUse" x="0" y="0" width="18" height="18">
<path d="M16.8189 7.11246H8.70624V10.4711H13.3759C12.9406 12.6049 11.1202 13.8298 8.70624 13.8298C5.85693 13.8298 3.56164 11.538 3.56164 8.69301C3.56164 5.84802 5.85693 3.55623 8.70624 3.55623C9.93303 3.55623 11.0411 3.99089 11.9117 4.70214L14.4444 2.17325C12.9011 0.829787 10.9224 0 8.70624 0C3.87823 0 0 3.87234 0 8.69301C0 13.5137 3.87823 17.386 8.70624 17.386C13.0594 17.386 17.0167 14.2249 17.0167 8.69301C17.0167 8.17933 16.9376 7.62614 16.8189 7.11246Z" fill="white"/>
</mask>
<g mask="url(#mask2_7899_19310)">
<path d="M-0.791016 13.8298L11.0811 4.74165L14.2075 5.13678L18.2044 -0.790268V18.1763H-0.791016V13.8298Z" fill="#34A853"/>
</g>
<mask id="mask3_7899_19310" style="mask-type:luminance" maskUnits="userSpaceOnUse" x="0" y="0" width="18" height="18">
<path d="M16.8189 7.11246H8.70624V10.4711H13.3759C12.9406 12.6049 11.1202 13.8298 8.70624 13.8298C5.85693 13.8298 3.56164 11.538 3.56164 8.69301C3.56164 5.84802 5.85693 3.55623 8.70624 3.55623C9.93303 3.55623 11.0411 3.99089 11.9117 4.70214L14.4444 2.17325C12.9011 0.829787 10.9224 0 8.70624 0C3.87823 0 0 3.87234 0 8.69301C0 13.5137 3.87823 17.386 8.70624 17.386C13.0594 17.386 17.0167 14.2249 17.0167 8.69301C17.0167 8.17933 16.9376 7.62614 16.8189 7.11246Z" fill="white"/>
</mask>
<g mask="url(#mask3_7899_19310)">
<path d="M18.2044 18.1763L5.93647 8.69301L4.35352 7.5076L18.2044 3.55623V18.1763Z" fill="#4285F4"/>
</g>
</svg>
